<mxfile host="app.diagrams.net" modified="2023-12-07T23:28:51.113Z" agent="Mozilla/5.0 (Windows NT 10.0; Win64; x64) AppleWebKit/537.36 (KHTML, like Gecko) Chrome/119.0.0.0 Safari/537.36" etag="vT9Lh-Af6wvOpWfn4Bvl" version="21.3.4" type="device">
  <diagram name="Strona-1" id="L2Pk-GVIUN1cYktU7mQP">
    <mxGraphModel dx="1481" dy="792" grid="1" gridSize="10" guides="1" tooltips="1" connect="1" arrows="1" fold="1" page="1" pageScale="1" pageWidth="827" pageHeight="1169" math="0" shadow="0">
      <root>
        <mxCell id="0" />
        <mxCell id="1" parent="0" />
        <mxCell id="_h1ouXhckzfPP8V2IBJ4-2" value="" style="shape=image;imageAspect=0;aspect=fixed;verticalLabelPosition=bottom;verticalAlign=top;image=data:image/png,iVBORw0KGgoAAAANSUhEUgAAA+gAAAPoCAMAAAB6fSTWAAABNVBMVEUAAAAApgADpgAGpwAKqQANqgARrAAVrQAZrgAcrwAgsQAksgAotAAstQAwtgA0twA4uQA8ugBAuwBFvQBJvgBOvwBSwABXwgBbwwBgxQBlxgBpxwBuyABzygB4ywB8zQCCzgCHzwCM0ACR0QCW0wCc1ACh1gCm1wCs2ACx2QC32wC83ADC3gDI3wDO4ADT4QDZ4wDf5ADm1hHm2Q3m3Qjm5QDnyCTnyx/nzxvn0hbovjbowTHowy3oxSjpt0npuETpuj/pvDvqslzqs1fqtFLqtU7rsWDrsWXrsWnrsW7ssXPssXjssX3ssYLtsobts4vttJDttpTut5nuuZ7uuqPuvajvv63vwrLvxLfvx7zwycDwycHwzcXw0Mrw08/x19Tx29nx397x4+Py6Ojy7e3y8vL///96oWsMAAAACXBIWXMAAC4jAAAuIwF4pT92AAAgAElEQVR4nOy9aaMdtbWtfXPuOclJQ0Ia0pAGQt9jG3CDscEYAgFCD4GLSXvO+/9/wrvms3fNuadKqlpNlWV7jfGpSkslqWrPRx/GnpL+z/8nSdI9r//TewCSJK0vgS5JRyCBLklHIIEuSUcggS5JRyCBLklHIIEuSUcggS5JRyCBLklHoDOg/x/pnlb1zy/d0xLoRyiBfnxqgP79U/3AxNUPN/qx6X7Tz5J+YXrAxNXPB/3UdP9YPzHxJNV+OejXrgdNvzP9fqOHTA+7/mh6ZKPHTI+7njA9NehpE1fPDHrBdN70kumC6dJGr2W9arqxERdvmOzuxuumtzd6y3XT9GZDfzLZBbW4+7PrvY384kQfDPqL6X0T5VxZ+fsuanxo+jjpE9Nnps8H/dX1temvf22B/p2j1/+7ZyXQBbpAd/XGcT0JdIEu0F29cVxPs6CHfrTRfSZQ/anLaYfZAN2KqHpfls0VAfovXL/a6DcuQOfqtxv93gXyDvqjJmh/wpVBR8+ant/oRdMrppdNV0wO+lWXg47ecDnoNbz/lPSOyUHn7l1ToO3MfpD5doJzUSjKPzJ9MhZ8f7EReH9lgnGuBHpbvXFcTwJdoAt0V28c15NAF+gC3dUbx/Uk0AW6QHf1xnE9CXSBLtBdvXFcT1OgY7j/t8n9d4P9Rz92VN1/d7LPXLnhDt4/dNldC3QM999kGfEG+28L6z2DHrQ/uVF47c44kGO4AzquO6Bf3ii89pCRne/eyK57i/EA/d2kbKB/4ED/JV/5HRhjpX+YRHlcGdmfujDcjfEvvtzoq6xT812gV+RIVIruAQl0gS7QTY5EpegekEAX6ALd5EhUiu4BCXSBLtBNjkSl6B6QQBfoAt3kSFSK7gHNuu4B+gDpfQG60x4efE5zpSqzA4z/aHDuqeCJsj/3DNpfuSqg/8GU82AfdWXaA3Rn/MVzG4XhTvZrdt1vjBWgR9n1jYrs1xbomfYAHUqN4I8qykC3KmTXPRh3wx3QQxB+eiXQXRUkJn+8ayXQBbpAT5r88a6VQBfoAj1p8se7VgJdoAv0pMkf71oJdIEu0JMmf7xr1QT9e9/73n+7KqBn5GORech+C6/9B8m0D9c9rHon/ldj/52F6YD+kCuvTs/JsE+69f6cqQW6MX7p4kYkvhb5rg56ZMVS7qBXXPfAO24rS86d2VhC/onz6kvLuYsfxzPByVTgjIegPeP9hUugn1EFifkad6MEukAX6EnzNe5GCXSBLtCT5mvcjRLoAl2gJ83XuBu1HejISA1LLeTrT1tFP/AnPTOu2HvOQWfbudg9LoMea1Ud+RroefM4QGerOAc9touzpLjL1zbKO8XdyKBHUSUzrmLBRS5c3hIu+3AfZ6DDTvt0LED3FLmYIvzxgnE34wCdu7PlAt3Vm7/bJoEu0AX6EUigC3SBfgQS6AJdoB+BBLpAF+hHoB1AH/aN+1Ew+6Oxcjm0F/V/PAjrPbadG7LjzoD+4JAVVzCe/XdAj8w4P86hSI/LoPsK1cvmul+r0J4F45EQ50lx74yVz2go9oargF5Qmg30DHqkx/GkW/XxdMht9qJIoFfVm8SVJdAFukA39SZxZQl0gS7QTb1JXFkCXaALdFNvEleWQBfoAt3Um8SVNQV6KMH+fd9BLvTDrBb79/kSVU+ZDevdQIfxWKb620EwXrHe89mqJ3LYyYPlAAes95wC6ytUSYFFcZqqJ71GQuzbbrZnxguqs8Wez2coUlcz6AFiBXSnPc8QkTxbePZcZa/djXgtU51QbxzXk0AX6ALd1RvH9STQBbpAd/XGcT0JdIEu0F29cVxPAl2gC3RXbxzX0yzo4br7HeXfb6igupIa64Z7bC+Xj3KAdgz33yX9NnOfcmFPrPeMPB48tLv1zgEOebs4QOcirHeufIn6dV+BTppr9toz6IXX/kFSwbhfwGYg6c57JRc2PPjg2y/iR586Au/YOE6gT6s3kutIoAt0gZ7UG8l1JNAFukBP6o3kOhLoAl2gJ/VGch0JdIEu0JN6I7mOdgS9MOJBu+LGO+33ZeXs1/uzLBeWRelFCqzJT3J4MNz4Cu2Y8H5R0D447+eKFNjkvJ+oBbqvQIfxOJXBF58Xq9Ch3S4APc5JdeQDdDfKw3UPoJ177irbSua7T2LqqNIu0KfUG8l1JNAFukBP6o3kOhLoAl2gJ/VGch0JdIEu0JN6I7mOmqB/97vfBejvJkVRBr1ImwP0Md4/9oMdYs+4fDIjrtwDftyibxzHRXGwgx++2Fq+Cu3sJUei3LMbcZID6XEXXAPslwrQ/dxF3ynubV+dGj4cLP85qciMc1fuL66w5UwF0BUzLoP+SeY7n+lQTB0+fQj0bdUbyXUk0AW6QE/qjeQ6EugCXaAn9UZyHQl0gS7Qk3ojuY4EukAX6Em9kVxHU647QP9XUtBeWPJZea1qAboBHWeu/jQpUuRi9zjHO0B3Rf4cjLsRH8lyYb2n9arnWKuK/+6gh3zVKqDnsxugnRS5cN1dAXokxBnZAF247jlPLrPpxBc7yMUE4IwDecwheeqIds6uVRXoU+qN5DoS6AJdoCf1RnIdCXSBLtCTeiO5jgS6QBfoSb2RXEcCXaAL9KTeSK6jJugbqv/T9F9jFSZ8RW69B+hBtYNeLFP9eVLQ7vqVK08AlV3l3Hk/Q7ulwZrz/qyfrXpC++VBxTZyw75xrwbofopD7BlXQO5GfLbY3WH/KBvugWUgmVNXfeVqiKo8RGM2mUSX0eJ45hgk0GfVm8vFJdAFukAfqzeXi0ugC3SBPlZvLheXQBfoAn2s3lwuLoEu0AX6WL25XFxN0DeM/19TBfTCf/eE2DDifVE6oAfjAJ1yXk9SYDPeIWc87uLHfNZD3l6uWKIO7X7AKtY7tHsybF6dfimvRy9At9Xp5MIWoGflzNfwyPPK8YzlpwXfOXXVFOUQS2PWfuxJFxa+N0jVs66+QJ9SbyTXkUAX6AI9qTeS60igC3SBntQbyXUk0AW6QE/qjeQ6EugCXaAn9UZyHc2C/p9JNeQd79gcMp/Y0Mp3Dfaz4R4+O+66X1RmgciKfTAvT8/JsLjuBnqcrRor032ryFiPzikOZrgXoF8fdDPnwWbDvViUXjm7wRXWe2sJ+Vemr012UYDuk0XRvlz3A9QbyXUk0AW6QE/qjeQ6EugCXaAn9UZyHQl0gS7Qk3ojuY6mQC/UsubMjKuc3fAjZ7xw3hp4/9z9tl+6cmYceOf6lbMeoN1T5M6A/sRGk6CHDwfobsYF4yxTtcy4FuiBN/Lb4pBFV/hnYaJl0DkV8atB4chhsznoefoIsw+uR2l2An1KvZFcRwJdoAv0pN5IriOBLtAFelJvJNeRQBfoAj2pN5LrSKALdIGe1BvJddQE/f+eyhmPO/COq7Qu9YcZ9FoG3JAd91PHtUiDi5WoNbPdaa+A/ttBkR4X56pWMuNYqzrAfoZ2X6Yarrsz/tZwiMObAbofrhq0h/JBqmGNp4uPotxgL0B3UVSsVc2M046DHulxQbtAn1ZvJNeRQBfoAj2pN5LrSKALdIGe1BvJdSTQBbpAT+qN5DoS6AJdoCf1RnIdNUH/j//4jyIF1vGOcl+rmhenBu1sF1dQPcD+s9ppDaZibzj7rTDo/Ukq/MaVQY9lqn6KgznvTzxjet6E9X5+I+x3dpDzA1Yvm/0eoOO6O+h/cr3jendQQbtv51ZY7B+N5ZY5WH45VpH9mi32iuteW/wq0KfVG8l1JNAFukBP6o3kOhLoAl2gJ/VGch0JdIEu0JN6I7mOBLpAF+hJvZFcR1Og/+dYYbhn1z1Az3mwAfrPGgorfYD6TAqsgx5ee6jlumfDne3iHjWZ626HODwJ6FjvTrvBfj5Ax3830F/1Relxmqob7u809O4Y+cqZDh862RXLPBalB9qfJsFxttg/GrcYq9y/OCOBPqveXC4ugS7QBfpYvblcXAJdoAv0sXpzubgEukAX6GP15nJxCXSBLtDH6s3l4pp13WPdudvsKNP+3bwo3XeIvM/zYKE9J8QCegY3PPhfpNu4iynCngnXPW8OWZzd8NjguJMC+6wrg+7HOZy47sMGkScK0D0Fdp5xZHfZg38/g16x3mMdeWbcoa4Z7gXoPmGMLHyBvp16w7mkBLpAF+gN9YZzSQl0gS7QG+oN55IS6AJdoDfUG84ltd0yVd8brtguzn/8nq9VDdCNccy4+7N847hKuluYbr9IiqI8McQhi4DuW8XFIYu+QhUjjj3jKmacr1c9AZ21qg56HOCQzbh3x3Kya+V55eoHhuWHrqD007E+SQrG84+Z/U88KS4y4053nhPos+rN5eIS6AJdoI/Vm8vFJdAFukAfqzeXi0ugC3SBPlZvLheXQBfoAn2s3lwuribom5f9j/9Ia1Ud9GDfJ4CC8dg4ztPjsvVeuO5+lT31UFHf3fg4TTVWpzroeYXqY/kAh+ddOTOO3eMy6MWRqrZUNVz3CtUofsynOwToH47ljnklye3j/GPUcMaLacLxDrsdzG/dEuiz6s3l4hLoAl2gj9Wby8Ul0AW6QB+rN5eLS6ALdIE+Vm8uF5dAF+gCfazeXC6uKdBRkQeb8Ga7uDDcK0eqcnGfn6vqAnvAdQ/+p5nqgDzXih99RSugx55x+QxVGMd13w70cN1tmerVfIqDH+VQpMCmdNcm6CgWrGbXPax3L/9oXKNY6erVsNmLvFljnFMfvs765huBPqveXC4ugS7QBfpYvblcXAJdoAv0sXpzubgEukAX6GP15nJxCXSBLtDH6s3l4ppKgcV1d8P9u453KIMeG8f9aKz7PCM2014sT3eqf5ZELR4K0Afn/Yz1Th6sgY7h7jvFwThr0cl+jaXoLdD9AIcCdD/Foea6O+iV5emxFP0D118m9MGs8sSAzf6Zy5NeT8ne6JaJK6XAbqHeXC4ugS7QBfpYvblcXAJdoAv0sXpzubgEukAX6GP15nJxCXSBLtDH6s3l4mqCPlCNxQ7MTvZ/u76fFIa7Ux14z8s99crS9ZgYYhYYnPcHYodId90j+zVAz+vRg/YXNmod4PBaZVG6g54ZDxVFnvM6i3fwXWwmmUXVnALrOa8nwmy3dNdgPED/+muBvp16w7mkBLpAF+gN9YZzSQl0gS7QG+oN55IS6AJdoDfUG84l1QQ9AY2c8e+P+f6hK+y3DDqo/tjLXFG/4s859zEBZKeO9aqRHpdBz2c3OOxnaK+AzjJVQL+4UQG6m3FxyKKz/F6mPdtvwXIkuFl54c9x+96Eoj7tREJcPqiB5ajmw40Y30hm3LbqDeeSEugCXaA31BvOJSXQBbpAb6g3nEtKoAt0gd5QbziXlEAX6AK9od5wLqkm6IOL/v0peY1ip7iM8Y8z8mPY78s/FmlzrQnAQSczLh/gwDLVAnS/eMpz5FiwWnHdyYzLoJMeB+j5AIcW4xnOYDzWnrbwrsCeJ4xoxw9qAHQYd8M9QP/WJNB3V284l5RAF+gCvaHecC4pgS7QBXpDveFcUgJdoAv0hnrDuaQEukAX6A31hnNJNUFPVroDXct+rRzbkAkulqlm0APtvHw1VqdWJoCcAptXqP6+lQKbcmGfDNArBzg46NfyWlU/TTXvFFecn1pkrDrQkbqa94CjVm2KcMa9nWA8FqZ64msBupEN438zcQX3An1b9YZzSQl0gS7QG+oN55IS6AJdoDfUG84lJdAFukBvqDecS0qgC3SB3lBvOJdUE/QfjWQYfz/Tnhlvue4F+54L++OM8E+Twmev1MqgF667HaSK4V7sGffkoKfy7nHmur9iKtajD4c4nIDuZze8fXOjYru41gZxFdCDdlMBeqa9aCKvQgf0LwYVB6Z+PTju32adJsMK9O3UG84lJdAFukBvqDecS0qgC3SB3lBvOJeUQBfoAr2h3nAuKYEu0AV6Q73hXFJN0O8bKSfEhvVu5S2qC8bhNeW2nkludTs9QP/JMClUGC8OcAjXvZL96qDDeHGk6rmNXnZNgv7WsBa9wNtPbAhSW6B/mEQ59WcZ50nfDfKTSHp1vLPh/k0G/Rs34QX6tuoN55IS6AJdoDfUG84lJdAFukBvqDecS0qgC3SB3lBvOJfUFOhgGZR6itwPsgdnLEfVsYkXVt7JwQ45A66iAvRxPtyJB5fPV/Tt4n6fk+KeTAoLzvLhXjTGz1W2i6tkxoUZ58tUY+M49+HA9f0sB/1DRxVlMy7XD98ucuEy4zkX7qssX5N6K+uUdoG+nXrDuaQEukAX6A31hnNJCXSBLtAb6g3nkhLoAl2gN9QbziUl0AW6QG+oN5xLajvXHVQd71icGvTmqjlPrlAl062FfPDtG8TF+anGOGeohuHO6lTLh8NwL0A3rx3Gfae4k63iPCkuQDfD/ZKDjmKZqmXGvem0u+H+Tgb9g6TA9ROXgZs9+A8z3h9nZcY9Ke6Lvw463RFuyIwzfeMK0G/dEujbqTecS0qgC3SB3lBvOJeUQBfoAr2h3nAuKYEu0AV6Q73hXFICXaAL9IZ6w7mktlum6uAWhjtou+FeWO8/HMsbpBYY54WpP60oH9Twa1dmvDiywbNf88JUQPfE13O+VVwkvmK4O+gX8ykOr5ssDfamK5+rGnu95XzXYJzlpQ57LDt19it4hwC9WJjqO8Xlsxu+TsSfQV4psDupN6ELSaALdIE+pd6ELiSBLtAF+pR6E7qQBLpAF+hT6k3oQhLoAl2gT6k3oQtpFvQC7czsfWO5p/7jCuj+ZOS1OuNVyE35oAZn/Ddpk7g/ADqZr75TXDD+9OC4h+F+Li1DL7JfKymwgE4erJ2o+pYr/HcDvfDZnd7iuIXPxvo0KdCOJ7PhHnznRemhjP1Z2gX6DupN6EIS6AJdoE+pN6ELSaALdIE+pd6ELiSBLtAF+pR6E7qQBLpAF+hT6k3oQpo6TTWU7fdc9KMK46gyTVA/Z7+i2BMy33GVGWfd+e8GReIrhjugZ8P9mWS2v+hHp8aRDa8MCtrz5pDFonQDnVzYt9x/x3W3xNcifzW75X7saeSvRlEF9Lj9PKkw2yuuu0BfTr0JXUgCXaAL9Cn1JnQhCXSBLtCn1JvQhSTQBbpAn1JvQhfSFOhBdcVSC/ttOGThjDw9LvB2xn/sxlvGO4p+7vJ94YrlqH9ICtD9WEVfl/o0oLsHhwUXVKOKI1cBnfQ41qpadtx1l5/pgBkH6EW6m4OOvkgK7LMtV5hxnzfUyozLEwBFyozbU70JXUgCXaAL9Cn1JnQhCXSBLtCn1JvQhSTQBbpAn1JvQheSQBfoAn1KvQldSE3Qx4xnFz0Md8cbKz2KvEKAXpjtY8i5yIz/yhkv0uD8IhhHvkmcL049cd0z6LEw1S4C+wsu++1iTo8DdHPeX3faIz3O9owrNoiD9rxCtYJrcO/mfJEsl5PoKqAXtDvoUR7Wu/aM20m9CV1IAl2gC/Qp9SZ0IQl0gS7Qp9Sb0IUk0AW6QJ9Sb0IXkkAX6AJ9Sr0JXUhTy1Qz4z9yF71Iac0psIF2LnLDHcf9/my9ZwH6r5LZXjCOxomvkfn6lMtXqBYpsNliD/s9l8cOcrFxnIP+tstBf9/zYD9y5T3gAtzMeOY+e/BBezExZKjDYg/r3YvO5sEK9F3VG9PDJdAFukCfVW9MD5dAF+gCfVa9MT1cAl2gC/RZ9cb0cAl0gS7QZ9Ub08M1C3qwnGkPKz0572dA9yKo/olr7LUXjGfD/Te+AD2yXx103yTuURjPeD/jaoGevfbi1kEvTnEY1qRf97NVbzrocXbDR2MVK9Md1/DNsxH/efbf84PZYY8s1wA6Ex+0C/Sd1JvQhSTQBbpAn1JvQheSQBfoAn1KvQldSAJdoAv0KfUmdCEJdIEu0KfUm9CFtIPrPrbZw13/iS9Kvy+Jop9kueEe685/kfRLUxyd6qBnxh92xh93eeZrrEJ/Np3bUGH8TNKrKXz2dJLDCeieB1tkv7IePbvufpDqh+68B+jOd7bHT8zzihHvfBfu+hknPSmDXrjuSoHdXb0xPVwCXaAL9Fn1xvRwCXSBLtBn1RvTwyXQBbpAn1VvTA/XFOjFMtUKwnGVzTgvvz+rBfoDY0G7g44Pl5PiAvRIinNHLvLhYNx8uOd9hWpkwMVa1ZwG55rPjGuBHsqgx1pVBz0EwpnxQLvB+AbcU/3N9K2JW/uN+jEVUP7ttwJ9V/XG9HAJdIEu0GfVG9PDJdAFukCfVW9MD5dAF+gCfVa9MT1cAl2gC/RZ9cb0cM3uGZfXpFbIruB9opwBB+huwnNHLhw+e4XxsN4tO65IivPVqY+54vzUCuMvDPvF4bpPgl6hHU3uGecHOLBnXAG6n62aV6h+7uAWCW7uvH9ZmQqyi+6Mg/ffTdDuoNfmBIG+k3oTupAEukAX6FPqTehCEugCXaBPqTehC0mgC3SBPqXehC4kgS7QBfqUehO6kJqg33ea4FqsVXWWI6XVQQ/GK8tR81rVGug58RVx63vGheHuoEcKbD6ywXNeX3jRdX5QnKaaQS9SYC8mATqu+3CianmAg4MetH84QF4wXlmh+texCkpdYaVn0P/mcus9HpLrfoh6Y3q4BLpAF+iz6o3p4RLoAl2gz6o3podLoAt0gT6r3pgeLoEu0AX6rHpjerimQC+s9ArLDnqt3PEO0F0UxVJ0t9gj8TWQzwc4tEDHdffM12D8nJvtrwzCdc+r0AvQHe84SPVVVwV0XPd3NmLPuADdD3D4LMshL6iOqwbjhesOvd8OKkD3XNhbeT4Q6LurN6aHS6ALdIE+q96YHi6BLtAF+qx6Y3q4BLpAF+iz6o3p4RLoAl2gz6o3poerCfqPqypc9/unlF13LPZ8VwE9FNZ7dt1h/NFBFcMdxz3wPufL0A3jyhkNwThXYbg745H9emOAvDjAwVNgAb04UrWR/VroqzHfrX0eQ2fpPQU98mAd9JgA5LrvpN5wLimBLtAFekO94VxSAl2gC/SGesO5pAS6QBfoDfWGc0k1Qa9bbS3Qf1qRYZyPUPxZ+u3nxQpVZzyvUP2NgR4+3CPJg4ujFeNERT9MsXKiYrbgLuTVqRezB2fKO8XF6lQYrxzgMAl6JMVVcuEy45N4R1U344Jx9I9Bgf3ZK4G+nXrDuaQEukAX6A31hnNJCXSBLtAb6g3nkhLoAl2gN9QbziUl0AW6QG+oN5xLqgn6/aeLSoNvv/tJVqY9rtxY/7kj7+UwXtCed4pzwx3HPfLh4siGiuHuW8XlneLO+cLUAm+/KtalvjYokuLecHk+XBjulhT3jrvuRWacn6FaHMjg2hLtPBOcXXY6Ar0l4P/nPwX6duoN55IS6AJdoDfUG84lJdAFukBvqDecS0qgC3SB3lBvOJeUQBfoAr2h3nAuqSnQ0U9m5bUK2t1rD6ArynmwkQKL4W4Hqf42G+7O+Ankw4kNTwfozw+Ktap+bkMl+zWwLxam5sRXZ/x6Tnw1r/3dPw+Qv+/Ke8YV28U57QW9DnTMAjEx+EUF9EKZ7NA/Tf/6l0CfUm8k15FAF+gCPak3kutIoAt0gZ7UG8l1JNAFukBP6o3kOhLoAl2gJ/VGch01QR9wLei9fzwB5PJsvf8s04677jZ7gO4/uvP+ywA9r0J/3OWM+05xJ+enuute0O7HNgTfjny47mG2O945+/V69tpboGfrvZYCW3HR/S4Yn121/nWGPRafZ9BPGUcCvaXeOK4ngS7QBbqrN47rSaALdIHu6o3jehLoAl2gu3rjuJ4EukAX6K7eOK6nJugb8mJpueev3r+PMuOxAr0FOtmvgP57k4MehvsTg4LxDPpzGXlo94Xp4B1X2XAP191Av+7KK9ArjL+XGc+gWxrsJ9DuB6l+4a576K+pLGjPBz5UkmFjrgja3XqH8X+bwPzf/xboLfXGcT0JdIEu0F29cVxPAl2gC3RXbxzXk0AX6ALd1RvH9dQEfUPdz7N8nWnBsRfF1nJu0sU0EblwFdB9mWpenBrHKkZSXOwSl/PhMt5R9LxvIedmXOwZ19ouDtA9Fe4t15uDgvEA3ckmH+4vrmHfuDMbx+XMuCIDLifFTZpx7uBRFMly2Yw7xXuj/zEJ9LZ647ieBLpAF+iu3jiuJ4Eu0AW6qzeO60mgC3SB7uqN43oS6AJdoLt647iemqBvqHtgjGRkuuUMOFRJlitAh+pMPFd5cSqge1LcQ1Og1wx3u4vjHCjCdc+ZcZcrW8U56L5LXHjtsTC1kRSH6w7j7BT3YZJvHneye1ykx7kqRSjS6bJLH6C7bo1z5ArXXaDPqDeO60mgC3SB7uqN43oS6AJdoLt647ieBLpAF+iu3jiuJ4Eu0AW6qzeO66kJejraFFXc8kB+jH0wXrj32WtHDnpkv1Zc99gpLrvu4a479gE6t4Bue8aF4R6MX0uKZaoZdPj2o1P9xIY/Z9DDdS8gb4BeZLl+PuiLLGqME1+be8Zl1x3QTxlHAr2l3jiuJ4Eu0AW6qzeO60mgC3SB7uqN43oS6AJdoLt647ieBLpAF+iu3jiupyboG+DiNAUnMogvaM/K5cF4LooWfRl6uO4ZdLaLixXogbAb7pnvuIsU2MoBDk57MB6g2yZxRfZrOO7uusf5qZ4Cm7NfT9JfTYCeN46LfNcMemV7ua+c7EJGdk58PcO37xT3Py6B3lZvHNeTQBfoAt3VG8f1JNAFukB39cZxPQl0gS7QXb1xXE8CXaALdFdvHNfTDqAbjGHEZ9p/VqHay3+R5Q9GHqw77nFsQ4Du+0LitT+bVGE8QI/s13MmBz3yYCugwzgpsH5iw9v5/NScAltsB5lpd9c9QM/nqhYpsJ8lUQTjCeoTTz2usiLp1VehR/brqQR6S71xXE8CXaALdFdvHNeTQBfoAt3VG8f1JNAFukB39cZxPW0HuquSJ4egOvw5VwAdtw56mHG0nX04P7vhoQx6NuMK5835Lg5ZtLMbzntmXCxTRbLB9MAAACAASURBVBUf7sZwwGLl7IYiM+49lzEO9uHPhSOX0+PYPc5ZDjEBeDkmHWlwOeWtgjbuW+HDnXHfNvrfMxLoFfUmcWUJdIEu0E29SVxZAl2gC3RTbxJXlkAX6ALd1JvElSXQBbpAN/UmcWVNgY6C7wx6Rr5irD+Q8c7wxxThhvuv8+JUZ/yPlhTHCtUC9JQdd+a0hhcGkQ+H4Q7o+QCHK668VPVVl4H+ulvveeO4cN2LjeMS9mWinBvxfp5DsYOcE5/z4b7JkAN0gO5kB+2+S9z/ViXQW+qN43oS6AJdoLt647ieBLpAF+iu3jiuJ4Eu0AW6qzeO60mgC3SB7uqN43pqgv7ggw+CXyCZvfZw4t11jxRYJ74oCp/dG+PKD1ENr/3hdG5DHNsQyutVYznquYYM9JfzWlVHPo5UxXoHdHPea6B7LmxBe4X494d95Ir8WKc9J8QG5H/10xoC9Iz335P+keVJrwJ9N/XGcT0JdIEu0F29cVxPAl2gC3RXbxzXk0AX6ALd1RvH9STQBbpAd/XGcT3NpsCGu17Jg6247pnqIhm24tnnIxsKxh8dHPc4tiFb7zXDPdnsr2TQX8q6kMTq9Az6Dac9n6saO8jBtyNfOdPhfU+NLWjPZzp8mbaQC8YrBzW0aA/D/V/DWvT/cdrPXgn0lnrjuJ4EukAX6K7eOK4ngS7QBbqrN47rSaALdIHu6o3jehLoAl2gu3rjuJ6mQA+8fz1WIJ/xnpS3GE3EdpBuuGfG4wzVnP36TIPxcw46FvsrSS+7MuixRJ082KuD3vA82Ay67xJ5xnofp8GG9V4x4gN0XPdIerUF6JUzGgpVaM+Mp+0gz0oHOEyrN5LrSKALdIGe1BvJdSTQBbpAT+qN5DoS6AJdoCf1RnIdNUHf4Bc0ZsZhM0DPZtwOoCN2iQP04UDFyId7DMgtKa4APTw4Bz2vSYXqgvZ8gEP24SIzLtLj3JUL0JH7cKFJ0DPjOT2OzeNigzgHPSy4AN0uKtbct8NS1X8UoHsiXGB/epiDQJ9SbyTXkUAX6AI9qTeS60igC3SBntQbyXUk0AW6QE/qjeQ6EugCXaAn9UZyHTVB35AHg4F2Vs6Re6BBe5EG15o1fKs43yTu0QB9gP2JwnWvGO7ZWS98dteFsQJ00uN8B7k4ziHWqqaTHILxUGsbuQL0iuv+9aCC5VsOuYMeaXNWoQZ66bVvxI///KdAn1VvLheXQBfoAn2s3lwuLoEu0AX6WL25XFwCXaAL9LF6c7m4BLpAF+hj9eZycTVB31AHfhjiDw6Ku2zJZw8+9phDBdV+4a2enJ9q2a+PuR5PkMcyVWh31z0Yx2J3Pz2orljsIT/EAdAvubL9XgH9pq9VheoMdGsLuQrouO6xZ1xOgSXBFdABOs8C2ZIP0ENONoxH+T/+IdBn1ZvLxSXQBbpAH6s3l4tLoAt0gT5Wby4Xl0AX6AJ9rN5cLi6BLtAF+li9uVxcTdD/+Mc/sjico02d7wA9UHWMw1130GPJefGQNxbnp1r2a058faJlvfuRDYAeqa4Vqq8kXXbl27jLebC47pEHm/eMQ6xHz6CD9zuubL8Duh/g8KkL2j0P1u30bydB58e8Z1yc4nDisI8l0LdVbziXlEAX6AK9od5wLimBLtAFekO94VxSAl2gC/SGesO5pAS6QBfoDfWGc0k1QX/kkUdYHB60/25QwezgpJ9Y7xVF1UDb9HvXHwdF9itUw3c24vHffRk6q9Cz4R6no15q6HJDYbi/NkAO45UdIiMFtrI55LtTis0hW6BXgHbQK4Y7il0iw3/PRjw/nm4nKdCn1BvJdSTQBbpAT+qN5DoS6AJdoCf1RnIdCXSBLtCTeiO5jqZAB72HXQY7WAboriL5LZcF6BXG3Yd72I9tKDLjHHTYJz3OzThAj+WoDnqBthtsNTNuXKsJutN+009xyKBPKtLjAN1WqMI4hywWG8eZbo31bZYf4hB3zngIxs8+JNBn1ZvLxSXQBbpAH6s3l4tLoAt0gT5Wby4Xl0AX6AJ9rN5cLi6BLtAF+li9uVxcTdAfPVXQbvY7bOKdZ6oLoH0qCK/990l/yKJ966i2TNWT4mA8H+AQoOO6O70FuOz/5kBHopxXq4HuBziwTDVot/WqN12ZdoB+35Uz5oLxDHosU3XQi43j/Cofn/r3CvaB9t+Szk4WAn1WvblcXAJdoAv0sXpzubgEukAX6GP15nJxCXSBLtDH6s3l4hLoAl2gj9Wby8XVBH3DGqA/4jLQYxu5SXfdFRb7H8aKFFt33QvGn/D94vw0VRj3AxxaoF9sCKArrnv8GBODg/5G1pAGe2bjOD/KobDYg++8XVxOgS1AN8bz8QwnystRw2wfe/B/q/wYLd66JdBn1ZvLxSXQBbpAH6s3l4tLoAt0gT5Wby4Xl0AX6AJ9rN5cLi6BLtAF+li9uVxcTdDTanCQNxhhFnoz6HH3W9fvknjyoYYqoAfjfmxDHKSaD3CYBB1mW7Q76JELGzXswdguLlRhPLvulaTXD1wBuu0bx2mqpMBymupXvl/cCZEbZXgLO72VGpvzZqOx04YF+pR6I7mOBLpAF+hJvZFcRwJdoAv0pN5IriOBLtAFelJvJNeRQBfoAj2pN5LrqAn6YHXHQQqWoopbHtZ7ttgLxvNdmO0VxsmzNdCD8TitIR2f+lzQnl13lqJfTpBfc11s6FJSUWR3HOBACqxnv17PoMdBDQ76e2O9X7He7TRVQMd1B3RH8tuKjPEiwdWprtWvgH46KQj0WfXmcnEJdIEu0MfqzeXiEugCXaCP1ZvLxSXQBbpAH6s3l4urCfqGrqfcBgP5wZA748hF9puT/bt0GxNAi/FHfKu4zHjkwj2TFEUOemwXlzPdEKtNK8QXfDd0LTtygF7ZM86vitMaxq7cGdoN9GK7uCIXzpXNuBboYdJVJoCzhp5An1VvLheXQBfoAn2s3lwuLoEu0AX6WL25XFwCXaAL9LF6c7m4BLpAF+hj9eZycTVBHxaDBl0G4h/deg/aXbElXMV1D+s92exncuGGLLgzaXBhtptihaqDfs4E6JEZZ/BGpptv//aag56T4i450CizX4D+9qAiMy6QTx78uxU3PkC3zLhYporrng9RDUCLhDhnuaJ40i/+7n79qWkv0LdTbziXlEAX6AK9od5wLimBLtAFekO94VxSAl2gC/SGesO5pAS6QBfoDfWGc0k1QU9gufUeZzrgm/8+6XdTil3iKqem+rZwGeOTVahmrHNhx6c+79jz43lTgB7Wu2MMqlcHFa67w1wz212A7oZ7gB6Ge0a+WL6arfdYsJpTYH27uK89a7VAeGq7uGA857vGg2dPWRXo26k3nEtKoAt0gd5QbziXlEAX6AK9od5wLimBLtAFekO94VxSAl2gC/SGesO5pJqgb+gqrG4zxGN1up/p8NAs6JnxRzLjefE5XT7vgu9zg15wvTgoQEfuuhfMArk57zWgU47sNS8KsR7dl6KjYil6dt4LI95c9zDcfbu4D+0Ah/k940C1SH/NtKec1zN85wf/6frXvwT6rHpzubgEukAX6GP15nJxCXSBLtDH6s3l4hLoAl2gj9Wby8Ul0AW6QB+rN5eLqwn6ABbAQbsvTI8zHQDXz0StpMZyRzlWvfNdrDsn89VzXl/IMsYB+kX33wNyE5tDZtCL1eYZ48z4a1eTKkWRAuuHqAbGFdCLPFh33QvQzXUnBZb16ICO9W6wf+1HqgLu38aquO6t8iIFVqBvq95wLimBLtAFekO94VxSAl2gC/SGesO5pAS6QBfoDfWGc0k1QR/AyqA/5Y4cTlrQPhB/Ijfp4tiGAN2efsrlZzQ8Pc6He/GcQ27izn24AnQy4/KhicXJidmCq5huATpoO+iFGdcC/c1BYcY56IUZZ4x/ZGZc7Bn3pctgL6w5d9iy1XYiL6r96BMAjJ/acQJ9Vr25XFwCXaAL9LF6c7m4BLpAF+hj9eZycQl0gS7Qx+rN5eIS6AJdoI/Vm8vF1QR9w06ko3l63NNOO6CH/+7EA7TTHozngxqy1/6MbxDHtJIxPp+BzrdcxDLVS1upRXvhs5vecAG6bxVXS4Oz8mIvOQe9cnZDgB60I1u0WrDvyEfym+fPfZP2mbs1ngRuhXF/SrtAb6k3jutJoAt0ge7qjeN6EugCXaC7euO4ngS6QBfort44rieBLtAFuqs3jutpCnQognZfsOrrVQvQ3XkvQH/YT2tAk6CbAJ0uI681K8pfGpQPUm2iXcHb716tyLz2OEPVV6gWrnsFdK910/Nga8tUfc+4oJ3d4zL2OTXWyT6jyrLWCujcnibDCvSs3hDeDgl0gS7Qj0ACXaAL9COQQBfoAv0IJNAFukA/Ak2lwPpmbec8D/bpSh5sXp1e0O6gh+vuq9DjrNRnB+HxF1a6M+5knxRdGMQq9Bbokfma810rhrvjfcK3Mx5HNrjCWH8zqQC9sh4d193zYD9xsTI9Ew/oznihDHqwHBZ7pUigV9UbwtshgS7QBfoRSKALdIF+BBLoAl2gH4EEukAX6EegKdBjf8YK6KAa5zlUaHfiufJabA5JE89m+VL0WF9+YSyo9qvaknMjuFh87jAXqa455zUzXhjuGea4C9qd8QDd82DjNNU4UnVIg/24BXqcsgraeZ16xXkvXHc33PmRolPaBbqrN3+3TQJdoAv0I5BAF+gC/Qgk0AW6QD8CzZpxGfRnfK1qyF25yjZyIcoB3ZPifKe4yIpjhWoF9PDbsulWsOwcX8vKoBf2W0qFu5EhDx8uqB5bcDEBvO3K6XF/znJbzk9bPEP750nhyKVN5f46mRn3TVIxARy5GUfY+8XRSKALdIF+BBLoAl2gH4EEukAX6EcggS7QBfoRaOo01TgwAdo9hS3YdBM+2+9hwheMMxWMz1A9OUTVQY80uIq7zlXDUy/Avdrw2Sm64XLGY284V+DqLN9MxBfIUz9od9BJkQPvsN7tzterfpTN9i+ynPG4C+u9QvU3Y8E4mXHHu2dcb9h6SqALdIF+BBLoAl2gH4EEukAX6EcggS7QBfoRaBb0cN0N9GcqMmZjB7lKMmwwXgE91qpaR3QZoGezPdaeZju9AN0JjtMXHOhCGfRiYWo20DPyf6rIZ4KQH7caXnvsHufrVXHdIwW2BXoi/su8YLVgPGe/xjJVzlL917/uPdBb4b1D1XtcAl2gC/QjkEAX6AL9CCTQBbpAPwIJdIEu0I9AO6TAOuixKJ0rX5jeyoPNhjsKwx3G/RDV2C4uZ77W1pdnOx1wodpxBVxQjVtTzAJ58XmRuuoPFi66CbIrBzhkbz6OVI316LFxXNo87qOgvWK9f5lUbCOXDfeWEY/rDuj//ve9AnpveO4mCXSBLtCPQAJdoAv0I5BAF+gC/Qgk0AW6QD8CbQe6045HHptDup5wKz2QzymwUcOUE19PMl/zUnQY9zXnNYs957yGZZ49cmf2bc9rjap5AiiSXt9KyrQXeDvykQwbNTwFNkB3//2DvCjdrXfwDtqD78pxDhnogm9nPFz3ux104jaupK0k0AW6QD8CCXSBLtCPQAJdoAv0I9AOy1Qz6EG7u3Jh0jnt4cPFpGC1Ih8uQHcfLhivOG+V5DcozWgHa7F6tMJshj3MOK8QD2VbrugkYx8/uiI97r2kAP0jP3PR16t+5shnHy6f6fDXBHtpv2X9w3T3Zcb1huRekEAX6AL9CCTQBbpAPwIJdIEu0I9AAl2gC/QjUBP0DXkt172gOh/D4MlyoTwnPJXz4WjaQcdwh/GKxT6Z0Zbpcrv7neAvYx9ufIVqnwXy3XWn/WaeUrKKcnfdi1McHPTCenfQC8N9WKparlXNqXCxJrWiu2/PuN583DMS6AJdoB+BBLpAF+hHIIEu0AX6EUigC3SBfgTa0XV/Lq9VfXqA/Nmsp5NiFnCzPRh/wbeKM9BZnMpy1OyzF3vAecZqMJ5TTgP0d5wzV4FkhVnnex50VLH883xTMO7ch/UeC1bziap5zziKSJSN8nysajbcA++77wCH3mjcWxLoAl2gH4EEukAX6EcggS7QBfoRSKALdIF+BNpxz7jQM0lFSqvXKCYArxFeO6InM9zjrNSr2WzPoCMHPYz1DHQ2uN/zu5gA8sTwZpYzGyw77EF2XDnZ0URllsmgI1anB+iWBpuPczih3e4+dfGjW++AXqxHNxUpsKfc3/mg98bi3pNAF+gC/Qgk0AW6QD8CCXSBLtCPQAJdoAv0I1AT9FdeeYXTFIL2DHqAm1WZGPL+jy96q+61xzL0AvTW6aie+Rou9ztubjvU740FYRU3nrs3HdXMawG0G/E3xwrGw/fPneSRxXEOgE4erINe0G53n/iPFGXQg/bKKQ5naRfoxyeBLtAF+hFIoAt0gX4EEugCXaAfgZqgb8jjNIXzictIZiucNE+iy4qqQbXpFRcLU0mIy4cpkhnnJydCdjCeQQ9wA57hhIQzGrtghSoTwJ8qGltwNQXVudU8xAA9No5LJzmcsd+McV/Hesaky2c6BPKGNxf5mIeNBPrxSaALdIF+BBLoAl2gH4EEukAX6EcggS7QBfoRqAn6Br+g8eVB5yuo+o9RdL6hCt7Ij2yIneLw2f2sVHfeb8QucZmpFujBcba6ix+zwqHPljnKxno26N/MP/qTwfgHY+WkuDDWAfqTpHzmapzuUDtl1RU/nk4BdyroRGS+kxaSQBfoAv0IJNAFukA/Agl0gS7Qj0ACXaAL9CNQE/QNftCbaXxpBznxtBPl1laAfsUzX/3kVPfa36jQno9sCJwCUMO4Rq8b3AF6dr8LEL2doNRvA/sW6Nlnp/2/ZLnN7l77xwG557sG3+nik2y9xzEPWUH712d0B4JeCU3RvqQEukAX6EcggS7QBfoRSKALdIF+BBLoAl2gH4GaoF8+K09MBctgP5N9ISM8vrtweSyaNcavjRegB+MF6Ozb5tmvwXi20mMCyMAVaPsEEBY4+ah2915F1mDBuCfDUhSzAP16+5Hl6kenZrI/DT/dDXfQbk0HQbsnxIZKr/1OBb2ISPG9igS6QBfoRyCBLtAF+hFIoAt0gX4EEugCXaAfgZqgX6sKNq+4LowVLrrLclsvceXtBN7XstluisXnTnuRAuvLwQOn7LBXsC9+fD+Z8IF3dsY/cNrjSZ856PzNxHcMpWLtR6qr81pj3O8y4zFD1GaHNEN85jtH1vz3r766s0Bv0d6Fh3tWAl2gC/QjkEAX6AL9CCTQBbpAPwI1QX91JDPLgtJAOOtiUmDMlR+c6A1ezQc1+OmJ14P2fGzDdT9bsZIZ9+cBwoK1Av4MerbgMu2RSRftZ6DfdeU+cvthxuXcts8rsvKPXTl3rsikm6TdM+ZGaoE+BEU3vqXVJNAFukA/Agl0gS7Qj0ACXaAL9COQQBfoAv0I1AR9YCpb4Fcz7RWgrybFNBEu+jjl7UyNfEaD317Pctcdz/vdsd5vqADR+f44y2kP0OPxPK3EROJ3UX+K8c9yHhsEcjXAXqU9g/7JWEG7txNpc6dXc6BnLYWxQO8pgS7QBfoRSKALdIF+BBLoAl2gH4EEukAX6EegJuhvnyroMuCC0teSoPqG++aTyqDfSMq9hYqhoHyQal4bWgCXyYsMV184GqBUQC9oT/Z+iXw23H02CdABEeA8RXUe9Ex83DLiPAFUsI8u9wIdbcfypIR3Twl0gS7Qj0ACXaAL9COQQBfoAv0IJNAFukA/AjVBf/PNN/G2AzG3wVFGlaKC0gqzCfZSVh5VeZLOs+v+tstd98rRCZAXwLky3uFfw0IF9BCPZ4u9QntUoHPnniYC9Jyi2gI9M/uJg1647l5e1Peiz7L2Ah0J1btXAl2gC/QjkEAX6AL9CCTQBbpAPwIJdIEu0I9ATdDT2QQV0zvAdVccvTVWPO1X8fT1KeX6Rbm3fzMjn9eLZx88GM9udoDOjxXQA9wK1Y583GW3nyY+yuh9MZbT7gvTP8tTUAG6O/FUiKoZ9MJ1/+yzfUGX7l4JdIEu0I9ATdCle1l10KV7WQL9CCXQj09V0CVJulcl0CXpCCTQJekIJNAl6Qgk0CXpCCTQJekIJNAl6Qgk0CXpCCTQJekIJNAl6Qgk0CXpCCTQJekIJNAl6Qgk0CXpCCTQJekIJNAl6Qgk0CXpCCTQJekIJNAl6Qgk0CXpCKTNIY9G1T+/dE9LoB+hBPrxqQH69evXXzFxYALnjttZAF+Z4lDvf5nsUAAOKOA0hS/92G87NuAbEwcdcHYA5Xb4AmcccKATZzFwvPpLG9Eb5ZzuQLndXTNdMjEoPzjiooljGzgyiWrPbvSy6UVTjN/q0yDj5BQEXsdeJE5Z8FPO37NjIf5kogmOhOCoCKsaByzQDh/DqnK2FFUZwRWTPc0h8s+YHjU9ZbKiF0w24GfPmxje5Y0umHgb3ovx2/fku/H2cbCG1ac8DqBgPF6B96IGRzm88cbEAQ63+cCl7XqbH9Teh7YvqkrnlePkWyfMrzt0gS7QBfpCEugCXaBXJdC7g74JO6KEGCN6LPg5lIwov+WycmoBEKHugUlVaOHq9QFOwpf2z5l40oAgtjlRjECmMQtk2IedOH3VwQU46ALQ5zfiaWihc/rN0xZTEBOPH0oGKAwFLm0otBNFzGJGDB+ECYZPwDzx940YmNc6OZ3NBkA7DJbZivnJxnnRdcnl0x/TBE34VMan4X3jQDh7S5skX+ItYwLwU2t5mvqM4O23W6DfLkZ2COktq3qton5P7Gtaajy7z2kCXaAL9NsmgS7QBfoBVQX6nAS6QBfot00CXaAL9AOqCvQ5NUHfxB7Rgy/s9BK+hNHXJgLNApAJgOgHLFAy8sAAighYAtnaivAFIKx0C0IMaAIftLkyvMNwx0onYA0DKgRF3Fr73AWl1wZoYYF+QcZHBgaUM7LXB9FO/IuAlzOn/gMXD+Fm29vHHEU7fB/7DnwyAL3u85m9DQO+4qKaDZiO4l8HlNsz8V+GsOTtr8QdTfin4Yqvy9D5DrzJZ5/Nue7r+r+n8k5qvWVwb8t4bovG01DTpd+una0/jUAX6AL9tkmgC3SBXvwYtQR6sx2BLtAF+p0ngS7QBXrxY9QS6M12Dgd9EyVETwSmhRfZlwQaWZagbV414YVrDfI85KmxhGO4xBarPIhRTiCTHGp9cGE2+2U4e85kFRgAEw+0M/vYBeW461DB4wPsNy56T0w8NjAY5I4a3LqbDa68BOU2VgZAO3TCe304iLuw0u0F+T4ATQ0z4v9uo4a1yF+FP3uGxNdnPWnX5zP+F1FQ+uRGVKBqfBH7WtTn0zB0bu03iKcTxk9jH388AfptUY7m71SivwL6ZPnioyuu9mljsv3W67TaqQxq+ouULQp0gS7Qx6MrrvZpY7J9gS7QBbpAH7Uj0AW6QBfo42YFukAX6POjK672aWOy/TsH9A0GYTT7ymvCCNDfdTPZyglraKGcWcBs+fdc0EV9IwyciD1LBH2e0LXgDGaJWkZg9Z8wEeU0wY8WyLAQ/x3gSWuQchqLvFADwheOn/xjAPQsDRaSKKIGt/Yg0xC00PQjJvstjG8GRX2bMGiQVe58jD8N6a/McPzIQ1wN6a6vMlhaZLD+bwLunnS+bUZhzmTiie8wvNvJInZelSnInuHTMFvFj++/3xH0VjhWmC0Cfzasaw/tPcSik8Na3H8Esz9Wqgp0gS7Qtx1i0clhLe4/gtkfBbpAF+gHDLHo5LAW9x/B7I8CXaAL9AOGWHRyWIv7j2D2x8NB34QdYfqpyyIX6wl/ixD1RDMiN0w3otxq8aBj8/qNISsOSwqAXnHvyRokoh83UYMnrQKRS6xSlSeHfeNeZ67gyadNNicQ4LDJk3DmZiIPUeTjAe/TvLGNfHYAIOYQ+r00wBlsMrFR38jj7n2Xe3+sXI21ud4O48Qsoyfe15PxrnpuG1OlPchXD3/0+rAfHe3wNP3ymlaViYod6vh4p4l+d5YZVwvYWdbmkV98iEtpqaZbTQh0gS7QDxjiUhLoAl2gn7ltVS3qC/Rm+wJdoAv0nYe4lAS6QBfoZ25bVYv6Ar3Z/lagbwAljIhOoseCjUDGMueKaLOAihWe/OgLOCGJiYEoJGotYLnwRagY5c+bNwzBntd1cp6DQUTVSAujvlWlAtEMjbjiw29X6IT/B8CHjTWWxzIhUT4sDX3L8TjZss3uaJXeGA85bDYK3ouvwmwIl749G4PlJZjn7IJaYPauy4bu61LfioW1NkT/N8Fl+qWajeJtp536TInWDvUpp3P+Lvb2fB/GTyfU6Oq610JxltLWxLA43s3R7fCkXx04glY7241nVEugC3SBPju6HZ70qwNH0GpHoAt0gb7W6HZ40q8OHEGrHYEu0AX6WqPb4Um/OnAErXYEukAX6GuNbocn/erAEbTaWRr0W7du/dkFFRacBDhh6kXvuruOvjVxMIIRFl4v1HFlsRfLXck7BWGLUGKbwAQUR8/Xn54sF/W8U+zuyy7a903uoALk3RUn8N/zKQv+7DfuaB8gnDMMcZqgffxrGxPtxwpVbu1BpiHYDFffs2Udv5O1p9b3q/6vBsSPbw3ie8bE4+tSqcUQmYds6Hyo+NcEt/bfCkZN0zGCV19dF/S9qGuxvGWLucJh3H9nx8aWn2p2Hc82E4xAF+gCfTyUHRoT6AJdoO/0kEDfbzwCXaAL9J0l0AW6QN89MHd4SKDvN56DQN/E0g0XQBjZXEQKJlFopEIS7joBzuzw2tBE0IWMnRddAE08Gk7EJI1BEehZwMIaMUwRoW4DIIEWDMKNt1qv+r8C+JFBpZnmOu1QzZiKV2UEzD4+8VBO07jc5ryH8c0X8T3vYg6hHeYJGwANeuLuCZJWTvsMhY/hb077/MMgkmHtQUCnvmfp3nSjnz8JVbmy3iiP/ybw+M2bt991/85Ys/XjwUpblVbXHnXtx9ZDO7S/UK25b6FbfwAAIABJREFUxwW6QBfoW4269mProR3aX6jW3OMCXaAL9K1GXfux9dAO7S9Ua+5xgS7QBfpWo6792Hpoh/YXqjX3uEAX6AJ9q1HXfmw9tEP7C9Wae7wJ+iYsImoJzCHN82TTSGfziieCXvUQBTFfIk3MU4OHrC2q4mHDLO6xAcQd4cjScqx9j2jmBGpAtf1G0ySmUt9nHwKcTmKcVjWMcq7eHMR0QG/U59aXuiOYBeg/bsQQaZWh8NI+PbnHfzL72NBjDqEq47Rar/pgo9xqxb6W9MtL2yh8V8yTIyGuD3rd84TpiZewqrTD133MdPr/gPVA34rggtJ8N011Ll+H78qkVPQ22e/eg6q1v+tU1h62QBfoAn3cpUAX6AJ9OtDmIzHHZBGhk/UrEX34oGtDFOgCXaBPB9p8JOaYLCJ0sn4log8fdG2IxwP6sGyTEAIGC1h3wa6FzeZWD6BQg5C2QAvrCVOJWcMz2sAgpgJvMCjl8eSavRXpdIMR9aaH+/XLQzbb61k0Zu3Hclq6fHfI9qPo1KraiH4HQ+tKmIY+YcTE5klr17z9qy4e8loARxP8aAyGhUjncGzt4B5Gv+j8ID5xZMBZ02GZ8kq8hFWI5MCLrnPn7gjQF9XerbbGs/9EUpmQas02EN5/gvEa9XKBLtAFeqNcoAt0gb5ToKUKAl2gC3SBvkq/Uw8KdIEu0HeTQL/rQL9xusyTGPZd3AAuAgd6DTow49gGkHG+wYkfiUI4sEgMFsI9tmmCgAVjAhZKfSLhaZrmyvrmwXxQ6w33tpkYGL9b75TTL0XQ5aCHZe6jo0HePtLyPFOPxqgBf8YsbHL0q29rd8U/IE1Qn06sKmTzDwPH+PzwzLUYupvznK36qOmiJ+4Z9vRLLWYBn6K54I8QpzhsmRm3d6TfSaqMf7t3qiDWrDHL7A4PzQ9lhxc5+6RAF+gCvf6gQBfoAv3ukEAX6AJdoE8/KNAFukC/OyTQZ0HfUAdOcQRo9rYJNELRcPJ1qa9BnYOC/eu4vuGmNBFHDaLQzx+IlE1+JPCtAk1Ti/HwkO+tBqXx3wE7uPSiW/WUM2wjLIx7WqSGvUO45TxJ+1Z0zX9kovK8VoZCvzTtb3jFFVR7Di400gRPWqtMALzvQyaSea19RsGnjKRgG/rDpkjJpV+vwFDw8VlO63+ESy7av3ixzwEOrcCsMHXHTS7bjWk7GreE3csmJ5KixfagBLpAF+izEugCXaBvKYF+pkigC3SBLtD/n0AX6AL99useBn0TiZFSSbTZManhisMIAWvh66SebHRGDQvMm74YG8QIRccgmKJ9C3yaIGqZGHjIng4vGfTeHcQ2dYyCq3eG/etuuADLgWAABaXZFUf+zwXPMX3b54RrdkdvTHigxJey+jTIqCP51Ix1avk08bKTB/sUAS7+uxnrsB/ZuGTEWn0+GT/yOOOx+pRHyiwv4RMMnePX24G1zz3++OGg7wPjJMEd8J7m7PC2i55a/W43iuLHCuMzU4pAF+gCXaALdIE+H8jbPyPQBbpAF+i3VQJdoAv0nQJ5+2cE+h0H+gAuIkTN7iaQCSjPsnzdczoJO2LMrXeK3PO+4RwT0dwR5bTvKa1v5KRXi+FIiKWcZFs7ttUc9i9vmWANIKwtpptIgcWqN7IjWxZQfJyee3oFihiBFcX78iODNYAYylt5KjOnmwmJOYRy2v9io5gbacfzZkmBDXqZOsxTZ9TU5/8Z9GTlFMXcyDjte0JwTFTU8OmDIoZOtUce2QP0AynNkdiB6opq49kOoNzGzn1O9btl+60poj2DCHSBLtAFukAX6EVM7vrjZID3lEAX6AK9Gll7/TgZ4D0l0Pmjf/rpp+FjESUWY8QwUUigEacWnFy85nYXNSyiiVAoNSvvEy/nwsP0Jewia4JyOiGkaey9wRdkPDBCi19vBPH/MP3VZEx9YeX0Bl0AR303yxgsYPFe1jczCsczxBEJ9l48jb8FO4BoQwnMGLrnqjE6mo50OmuCgflRjydP2mJTHiRfjfavDpMjc4sfGXmBxox4pglajdnHGoRg+rXjJf7I1GFtxVkP7gu+8vTT2y9TbcXYVIUtw30ykBdXC9zJ8u1a3LJ+pbvthlirscPQBbpAF+gCXaALdIG+VYtb1q90t90QazV2GLpAF+gCXaALdIEu0Ldqccv6le62G2Ktxg5DnwP95ulpDQSgrwGlKIxmbi34H/Wofcll4QtYYHbDzXmLXMoJa6LQTXseLJZnugfv3v8HcGx7zAE6jJsH/+1nJhsdrrt77e9551dd0Ouo0hugwAj9GhmxsxxT0CvDZARYfzBBqe/dxqvyyWjf5z/G86mJqY9ObHS+/vTkDAvKbfzP+9GpsbbVQGcUkWbHPy/se4IxTzMx8CZ2wei486oXLl1aZpnqdxpq1Z1sp3m7pFp0VX6slO8K4g6jKJ6ebKJSofWXONuYQBfoAn38o0AX6AJ9OrxadSfbad4uKYEu0AW6QBfoAl2gzwamQL87Qd9E7tsuQHGvnbCOcveq3Zs/OSLBIHK7+M8gyRRhnnGE9WMmgDMyCOtrLuYDj+EAFGRspShk47rD/lcmK8LgpogFpb7clVFzd8H5sFFTi87jvwnGcjEUXufyoDioAe7tgvIbLv+vRCzSfd1ld/QW278xDPuAL7gYJ9/H6kf2Lk37Z6FpOn/aZW9DVWiPifPll5dZprpdWDefbkXtZP3DlPvdfyiTb7/dYCu15kGfLM8Pjt5LoAt0gb7jUAS6QBfo2z6d29my/mES6AJdoAt0gS7QBfpsaO0ggX4Hgb4JO5iKPc4sxoiliD2fCWCEcKcGP1qkE4nEMBMAy8ct5v14Vrz5ZzlwwPqAKeYE0MCsTrmhJwIIs9n/bfpfE+76+4Oo8DfT5yaSRo0Fhk5VAt93xYvs1KDIRFYs44yjFgxv7p5zceugv+lHP4Dw4OBf4b8Jsdje5zr6ZVA8aVX5ZAwFhKlmDzKtxLZwjMw+DdMKozvn86Vn78Y/DND58xOgtwJtMjBnw7oWyEvRu12/W1bbR5PtLDX+Vp+V8qhw9heBLtAFulfbR5PtLDX+Vp+V8qhw9heBLtAFulfbR5PtLDX+Vp+V8qhw9heBLtAFulfbR5PtLDX+Vp+V8qhw9heBLtAFulfbR5PtLDX+Vp+V8qhw9pcm6MNS65spo9SPNz1Zmu0mPLg+ZYqotQjF+I4U2PeGteXcMYdgXdOTZdHSahwc4XsqAgr9hoVvTX9jYnTUD1pM0QTlbljzI/mxUGdFDAUqMKwByLB5xARAzEUs9rYDTSGJFFhahD97e8YZebYAbf9WuOB5v7xhrsAn4/8HfBZvgo/Nj1SzB+mILoNqGzrjOe/iR4OaCePUa9/otRPt5rq3AnavaC4eWoiFvbQX1RWKJtvea1Cton1GNzQm0AW6QN9R+fHJtvcaVKton9EJdIEu0PdUfnyy7b0G1SraZ3QCXaAL9D2VH59se69BtYr2Gd0s6JuwgKnYre3mcKYDUUuMEXJGKrGELxXLTg0/W0r6F5wuqIMui2FcIdiJCcMa5AIfjs5pzIyowJgi0DYyMONYphoLU217Nk+Fu8HImK0MIIoAjhp0Z4D6utQrD5lI17NyWA7njVsD/QHT6XEIGzE72HegiFZhDRvMmo6UOnw1n7eowEdi6Ny+OoiN5rjicZ8YoJpBMb/aM7TK93Tf7g3rjao8TflbJ2qBPhGYzTjaPppr9fdhYcuethtLMbK9VfS7+HvVumu8av3tBbpAF+iHq+h38feqddd41frbC3SBLtAPV9Hv4u9V667xqvW3F+gCXaAfrqLfxd+r1l3jVetvL9AFukA/XEW/i79XrbvGq9bfvgn6Bm+in8wyKBqguwilhBABZcH2pCk2LiPUjc0wuEGMW7PBaZAJg9ClRauAZwwQoO2BDJs8xJzDQ0P23Y33s6wC61iZo6InG91rrjhd1Lp82a1rugRcA52B8Y8BZ/kJY5z35fuQO8ePnpLGKLiiWXtnumTofDK+lF0wAwE6cyYjNhR5QV6Oj8fEaU3QKrDeTKIqljxD4QsO2XrP81CsOf7LX+Yy4yYDLd/uFbD5qmhnr2Yne8pF66hof4HxT71I7ZUqb3i2okAX6AL9cBXtLzD+qRepvVLlDc9WFOgCXaAfrqL9BcY/9SK1V6q84dmKAl2gC/TDVbS/wPinXqT2SpU3PFtRoAt0gX64ivYXGP/Ui9ReqfKGZys2QX/hdM9/QojQcteXMMXihUuLeQ5wIKwzqgQ4TbzjsraYDiKaKbdWw5iOfg2It1y48cwCdgE2FGFR/3koi8Rdpgjq+wpVHqKTWMVpohxweQmD2hz2h0ntBRks+UcG4c3Hx7A5gZmDaSVewt6SOYFZg/HwpWyI9BvjRAY742QHPJJ8mSD9u0XTjN/GCcsMnR8Zgf29GB1vc923nPvTnyZc9y2jqhXqd5oqA6sM9kCqG5+gVn+hV2qOp/2WAl2gC/Qd1Xqo1Wqr371fqTme9lsKdIEu0HdU66FWq61+936l5njabynQBbpA31Gth1qttvrd+5Wa42m/pUAX6AJ9R7UearXa6nfvV2qOp/2WUymwKLIyLagIF4BgxTQ1/ODPsJZxiYf94d4K95tkVWuLVmNFNlfDoQYn7ROrtGO/eaS/BbNQbSmwfzdxF667VfiTnxKBpc2gfKaJ2QQ0DBTAfdRXxGO9228AdJ+JWe/3JmMZ9mMRPqC7/X7Zk0/hzL5b7NhG/WtD2iovzkuzyx0Wu70DFXgbttlzvz6yd5ll+P7WIBNM/OuAEdgd9fmUsdJ/F9BboKyD922ZMHYAdwcV42/VWHzolREUQzmVQBfoAr1RvoOK8bdqLD70ygiKoZxKoAt0gd4o30HF+Fs1Fh96ZQTFUE4l0AW6QG+U76Bi/K0aiw+9MoJiKKcS6AJdoDfKd1Ax/laNxYdeGUExlFNNHeBA4ETephP5hgvqzFAmoHzV9FXKLRxjk8ZPfC9H38CRmMQf98XbPI3VDTLMAtY0MR/ZoGwOaU2Q6oo7DfJUs/pUJahp//VBzEUUMQuAwC83YqH5oy5e53cbwTK48jHIfDUP+zcmmMXSxlT3qnTCHMKVvQi9veTizc02Z1CMh6pMBTb0mNNi/Fb/Ty5axHX3CQna4y9kz/jC95OqDPbmzT1SYCsht3+sVkJxUSDmRzCJ6hSukwS3gJt8uV1fenIEraoCXaAL9Brak1VbmOUna020xnPY+OerCnSBLtBraE9WbWGWn6w10RrPYeOfryrQBbpAr6E9WbWFWX6y1kRrPIeNf77qBOjDck5CCCAMRKwt6HrXZeURe/xIhtrXGwE0aV6Ajm1mgfymr93EJCIAB+PtKu3AFPFud+G3EcN4alaf8fzTBJu+ZJNa/HjDebIX4UH6xe56csjqe9BkZP+OOQca3WUjKY4iaDd2+CCxQpWP5LUAjvb5PjZ+KsAab0iL9kHchXydL8JgrWmGGNvm8aMzS9M0waxk74A1R78x1VirVH3ZbbnTXL65AxxuC3WV9pfvstLgdvRWUNquVq2j+Zfb7sW367fo7fRKoAt0gb4VwtvVqnU0/3Lbvfh2/Ra9nV4JdIEu0LdCeLtatY7mX267F9+u36K30yuBLtAF+lYIb1er1tH8y2334tv1W/R2eiXQBbpA3wrh7WrVOpp/ue1efLt+i95Or5qgb8I33GaPTgAKlt2Nh8HIwCLNy4oAlHw49p4DXGMBV/yi54bxkAU5RdQCOKrZNEH7hDsBy0NWn/8J8CNdvj5MFnFwBC1Co00m4UJTzh5wxjJGP1TzI+63PcPxqQAaCHtKHawxTsbjm7JBNXOXLyqlfmTS+ZcCRN7+VV/NOsB+olddNqboEsapb795itxT/qqITwn2PETZM8/MHeCQo2Q+9rYL0S0Deb7admqx0AJlFuFdqG41OPXSWw62NZ6ZpwW6QBfojfJJsFq9TXUk0AW6QBfoWw22NZ6ZpwW6QBfojfJJsFq9TXUk0AW6QBfoWw22NZ6Zp5ugXzw98zNcawsq8L5lwkonwD01Frrw36lmaaq43BjuhBy3g4N8BZzgwP19t7WvsHCUciMvlmcGU4YNNjtFzAK0aE9DBtMQ44EPYw2wCHdAAW3bB+4pF8gDkFWAzQDLeWJ07CDHxEBPNrqY62JPN2uQGYVXjSNkk13/PINiePbOvCBFdM6TA+wny4Fp2ullYIz6aZfnvPJ3oUvmm1demXPdc6jsQteUJkMxx/xkG7Vmp7orOl9AkwOoVJ0cxuxH2uslRi0KdIEu0HfU5AAqVSeHMfuR9nqJUYsCXaAL9B01OYBK1clhzH6kvV5i1KJAF+gCfUdNDqBSdXIYsx9pr5cYtSjQBbpA31GTA6hUnRzG7Efa6yVGLTZB34QpgU+AgJgFCdjgZn/mGtJUL1Er3HhL/2SnOOqDJD9aLQIcen0OOTmX1AS4hChxbQHLtAI7jIcoH+A9cb+ZHQDCGsSuBwiQvzKkrfpJEVd4iDf0VegkiNIEV0YkoPNykQxrzjv9RkorgNrowtDnR9r51Ua498wOvBevb9PEOd9Q7hlfVm4D5qsU7+XuOhgzFfisx6eMCYlm7UHfGOAt+uV13nhj+/Xo40jcX1sC0SBgnpFW/ckmJjufp2h2iFuq0sRUUbPL1o8TKbACXaAL9In6U13urEoTU0XNLls/CnSBLtAFukAX6AJ9+35b9edVaWKqqNll60eBLtAF+nGDvsGSAITNy4MAHYObcuLRclsJKIBm/0dOHTDGubCF6V9/a4I6e/pVt+o9S/Tis4NYJU40E+XGeBjZXMGTQcqmjjBCdioThk0yME6AwzL+uDVIOU1Dkd/iilPEyKDabXYAiiMeDN5H3ZIP6gyu+O8AQ6TZn24E6LwXD/lieB/YmXxjg93t99fe8700fSk6teiSTnwdP9NE/Jk8pfimn9t6+sUP3xxyKe1AUav+ZID7b83bRtG8/KFdhjhVNP/iO5SPJNAFukCfanqyy8qAZ+u3iuZffIfykQS6QBfoU01PdlkZ8Gz9VtH8i+9QPpJAF+gCfarpyS4rA56t3yqaf/Edykdqgj4kxWHiEL8WyMQeeBNL5FxZ3htA43T5OYEn5y2YOGCB9DhMOl9eGgdBAKgR4OtDnyaaMZUMG4qIVTLXMLnsN8phB/SgxYhnnNy95HI3DXCZAADFTDqKoJEW2T3O2mf6gPGHXdYRTwPuyy5jiiEGuC8O2X6/MDErcU7jY8NkQRPh2zE87xdK+SPwOlaVfukkcuTsAoL5k/BledJmCL4/f0L+aLzhtWtb7RnXCuSlNEtRC49JkrZr+gDbrNHn4g0Wze76dxk9JNAFukDfW9t1uU+DRbO7/l1GDwl0gS7Q99Z2Xe7TYNHsrn+X0UMCXaAL9L21XZf7NFg0u+vfZfSQQBfoAn1vbdflPg0Wze76dxk9NOW6Exu40ASO2bkX/HQByjnV1Nz1f5kw3DGIQds2cSPQSI+jnCubDnDpb7gvDGcGBZEINnQCoEZM5MnB2nODMNzB1ateMeyjHX50lCKTDoGwYflbEx75Y64nB8EmP/K44cppqjFEd+npjXFSn9nHLn5toiimDhMdMQGE/27fgu9MY3xnrvyr8N3CSvdlvDDOk54xRy3+C8BsSOfnzm2/TDXHzKJqRblfzQNRXFV+XFxr91b5SFt+yplPLNAFukDfXmv3VvlIW37KmU8s0AW6QN9ea/dW+UhbfsqZTyzQBbpA315r91b5SFt+yplPLNAFukDfXmv3VvlIW37KmU/cBP3999/HKCfV1eMIO53wIqoIIdtBjvWqZGvCOG68Jb5yrAJuvJ/18KoBDd7UYjbx0H3WrXeq0pNFLgFLlHvW5+vGfiwexeDmcSOGmQNKKXegqe+LX1np+rwvEoU1DPdA1fGmnMf9eIanPamW+lYEZsXec8Pk82yMx4GmwVi5yvva04yfaYtx0o7nITNnMnQ+o9WiHZ6m3P+pcc5F56eZvruBvoSmArYW5a36S/F0mBYdSm6s+UW8vHJXKR9JoAt0gb6jFh1Kbqz5Rby8clcpH0mgC3SBvqMWHUpurPlFvLxyVykfSaALdIG+oxYdSm6s+UW8vHJXKR9JoAt0gb6jFh1Kbqz5Rby8clcpH6kJ+oZZPHVY9l3fOBgVoEH4zeEwBooAFz+dW8uK/ZvJvfZ3PESJYSx56hOYTjzh+7ZvhWYXPIhnDOiOAJFL9EcSq9UKRij6uclgt7XhP6UcQxyz3Yh80BTWuLvl4PeQH/HAlTVIOePhiodsAGAWWbSxst5FO6BtfTAdMA29mOYPHoyUX17CJhO+T+ypd2VQ3HHFe1l9vkpsF8eTuxzgsJTGQbvDg7Xk1nzXKrr71Hqvojx/mm1aFOgCXaDfOWq9V1GeP802LQp0gS7Q7xy13qsoz59mmxYFukAX6HeOWu9VlOdPs02LAl2gC/Q7R633Ksrzp9mmxSboG3ZgEFSh2uCFeMAiZkgy9VxYNoGEcVxxz3mlHRZL86NhHAed4up7ni3l4M2sAe1GNg8SyMT8uSSs7shfNWIIcMA6zfo8TYGFKVJO8al/O4hWg00yXB8dhKfOyHjIPPjCLWfE1gRDobeYBdxFx72PMyPsN6rCII15qit3nhj8os8mzDR0jhHvKbDn3fKnCTrx/xxEfuzpLHkQ6EXw3Q4titIOmux8qZHt2k7lq1SaGH1DgS7QBXpDk50vNbJd26l8lUoTo28o0AW6QG9osvOlRrZrO5WvUmli9A0FukAX6A1Ndr7UyHZtp/JVKk2MvmET9A2p4A1wRLkFFRf4c0Q/CFsQMgF8auKgBhLlfIUqDhJPMgFY2IE3mXc8SYjab1zwI/3yuM0hxDxhDRoErI0C9vmRcji2C+iF2dgIzgnGeaOcGkYMTTycZVWjfd/O7ZzdxQ51THgg7M4YDObx0AT9Mhe5LUer/Mj3oTEbE+VMAJ7UR1YfF5TTvj90wTe+44/DCOzvQgW+Fs4nV5MHOMwD51dL0JtbneqtliS2jibbrw1v7/Hs9TqVZ/Jt/XMLdIEu0MckTf5YGdT+Pe36eOWZfFv/3AJdoAv0MUmTP1YGtX9Puz5eeSbf1j+3QBfoAn1M0uSPlUHt39Ouj1eeybf1zy3QBbpAH5M0+WNlUPv3tOvjlWfybf1zN0HfRE+cHeDndxJGuLjEJG65JcsxJ2DQf+6Hq1rMY9DTBL4w6XHZa+cKU91a9XWXV7DkiVOL0Nd9Fogrq48dTeAHiHYR27wBFjlv5qn/0vQrU2S0WVWmLdrxsyHInaNVsOFH5g8bHXMO7jcTBma4NRHJb9GiiZmDQUWanQEdLHPFe9kFMwcfL/51YB+QB+kXqrn18bhn/zJ/HCuKg2/Pnu6wFegTQbOtdmiiVbUIZL+4zcrjWbujHcaz9XcW6AJdoM8qj2ftjnYYz9bfWaALdIE+qzyetTvaYTxbf2eBLtAF+qzyeNbuaIfxbP2dBbpAF+izyuNZu6MdxrP1d26CvmEcoKGReDEGw3Cn/P1BkArjsZecPUPsgT2xSrT58QNxNoH711QNC5lbu2CuIPBh3wcVrjWCXl8G68ct/AG+f7bRr1zQxUMGFnjE6Q6+hhXGeV+A5tZdcehlrqAT75fxx/kMRiqMs1iWoeC/WxEXkY1LO3bBUGLFrCftvuLiHwYvDP8BYILkU/KlPBOXCYAJmz/m6YSxh+u+TSwd8lAl1Oer7sXI4urab+Wz1MsFukAX6Aepa7+Vz1IvF+gCXaAfpK79Vj5LvVygC3SBfpC69lv5LPVygS7QBfpB6tpv5bPUy5ugb8ICLEESusy7xV0nZggo8irNdecirHTi3ezx8OZB6crgxFNEO3SCJe8YU4sWiVO7iz3RQICQNqgZReSpAqIv+MY7hy6sayMP+x3WYqM2A44HAS7yZq0IMgCF8b80pMvCGhjTPiBaO3RJbzTNCndjmdRbwL3fBPc/2Yg55xcmXHe4twGEEf+4y36DYO5ogu9gRUw8dBkr2e3T830ib5mXWGnPuEqQ1eJuhx8rcZ2fWQ+ibvTOa3Jk7U8p0AW6QJ/o7Y7T5Mjan1KgC3SBPtHbHafJkbU/pUAX6AJ9orc7TpMja39KgS7QBfpEb3ecJkfW/pRN0L/66is7JvVWJLHagQzY4B+44N5cdy5Yjw69RJXh8aLT6Evar10dsmupRbl7ycGsM37Fqobb/Kyb5Bbb11y0SH3LMWU6oD6NgZh55GG4Awq37pbDyPOeQWsPUgTeIMab2CsxPT3jemQQo+MhkGdQNvE8YPq+CZY5R+J7G3ERRjzjsf8O4MFHi37Ow5OeN8t7+UuH4R6Dsq/CqPnEfLLrJ2nG6x7g0Iq4egCWCa6VCvPBvBeSWz7o1Xatv5Im3z5/yrP1BbpAF+hbVdu1/kqafPv8Kc/WF+gCXaBvVW3X+itp8u3zpzxbX6ALdIG+VbVd66+kybfPn/Js/SboG6rJeYNGP5ABvMmA48gGrnwlJA4bUfXmUBcrL3ysoMXzt2ICsOSuSPqKtDPDhvLn/PhE4tqCnCL6pTF6MgOM9ZtYavhk2Ga+jRwsxykOBm74hXTpuX8MjPruF1621L+YkGCK+Wxo68XIaKM7GwquHKYb9PJyVg7o4I1NiGdnd1h2RvzPfIUqUxDtPO0iIc6+NV+Xolhmaw/SW8ySeKNrg16L9Fw+WXU2totAPoyYyXG2irpq1/Gc1hboAl2gN8bZKuqqXcdzWlugC3SB3hhnq6irdh3PaW2BLtAFemOcraKu2nU8p7UFukAX6I1xtoq6atfxnNZugr4JcI5P4JQFVqEaBtz9y8QZDb4bGUDj6YIAoPsBC8Eg8TjA8vYXJvxrAtACE/J4KDLpLEIj2Yxt5+DPgpkiWoUFXxbq6zcfDSqsaVqNZaTMBzae8M5h0OcP8GBaiSnI4IpFsdSn3Pq47I0xy4CmGNLDAAAgAElEQVS8tQqgJNFRH6rNiHeb/UTUMMefWtDOhORTH13Sfuw2d2UQVXklatgF9Xlp5gT+Xrucppoia5rq7UCvPekVZmN7MdhabeW3ma9fqXpbtN0HOfulBbpAF+jjcoEu0AW6QB+NbqmBbSmBLtAF+hYS6AJdoAv0YwJ9OE0Vdx3kjTDcctj82kRGrCeyEuUY9JjYxnIcw4AR7GtYY6UrNWjH4IUwcAUlT3W97Drv8u3iaDWmAnuaCoCOkU01wwAC3Ms/7/7779yqdwOdk0sZAGcuMDJG7KODNcofHfZto31aBXRa9IRbhsIVSNodqa5x2gTc/2gjykmN/aEJv95yZKM89qqzrwLGDIXx+8EOlPNpmBuZXy9dug2ue0ThdrUmw7T140GsbKvZMd6WUVT6rQ2s/ekFukAX6FOaHeNtGUWl39rA2p9eoAt0gT6l2THellFU+q0NrP3pBbpAF+hTmh3jbRlFpd/awNqfXqALdIE+pdkx3pZRVPqtDaz96Zugv30qXG4sdnPewRLrHTZBzw9qIFuWRekOdKxfx2LHjR8mgbeZAAhMADL2McRjjzZfeQ07tIq/z6050YFZZNfamCjHq4YiODZAYyJ5yjNTDWqmIQCiMVxxq4XX/oj75k8OfYaXj+WP6W1NUJVZgPbpKTX4WIBuDrtXeBSLHdfd9pKjHOxt1fr3sOSHZ37OhMFEwgj8fwuRkvvGIPDmr8RfjttXX10P9DK82rVqMTkV0fPzwQL87KIefU5p5psLdIEu0PdRjz6nNPPNBbpAF+j7qEefU5r55gJdoAv0fdSjzynNfHOBLtAF+j7q0eeUZr55E/QN3iRMYrizMt1APO+Lw5kACCaLIBikFq47Vr1NB2AZTeDjWxGxF/mZmPBGDC4xRSDpoQuID3sSKMBZke/6+HBsy2hP+0JwPO9HKLeqtAoLPARPRgxdUk4NHjJ2fufCeqe+D4DBAjqdW33KH3PRmK87B2+oZidIY587XoIabrEDdCxRB3S7w36P9evsOWldchH/GGA8NvkwofL9+UvYWRt/3SUFNgfzPMKzKhpLF3eD7sjBxqAEukAX6EvojhysQBfoAn1Z3ZGDFegCXaAvqztysAeBfvXqVZiFdpapGtm4aW97zpuvSb3hoipRZRfgTRNf+vkPBihgQS9NEOp2wQRAXhqUArqFL1j64suTcquFJUVYAxY1bBqKlaI0RkKZ9QZYOIdPuawC7h4s0xNoW78MkSagFM/LJg0n+ER++GLk5zFX8F7G5o9NtA/CcGnWH6Nm/M7+rw1qT4V7kHYYgeH9gK9t5TQImrUmGDVzAnMawzDi+ROGqcof5/r1g8y4mYCa47sRmLePhXtaAl2gC3SBLtAFukC/FyTQBbpAF+gCXaAL9HtB+4EOlnEgg+EKwbjuWM6ko10d5gQMX6KKXDgrJ7zecvGjPQhrUHTJZeyQukWsximiVk5sgyugAOLgjD/N04+4LPCLuSLmFROjjiMbBoeaY1gfigWohitVYyKhJ6sF2XQSPruNkwo09pjz98CgH5h+5oel2pzDEHkbinDd7VUtO+4nscccnVgF6tMYDzGRGN7MENTyOeo5++D8SRgsX/bmyX889gA9wmgmoLYhPt/uxeAd9FDxcl3V+s4CXaAL9AMfEugCXaAL9NsqgS7QBbpAF+gCXaDv+9BdDvp7770X9EK7BQ54AyIIXBmWolKV8nDdLfEysmhx6aHdjHjCLjaa48krg+jyYZcfYxCWM4gZcLHnGjT68lXuCHeqcmtptpDN0KkK98YOFWJNqoPo61sfc2P9BYOLB32HuscAzupTFNm7zEOGK/8AoDH89CeGNvjvALV4CXj9r41gnFHQPt09N4iq/P+AZv2U1ajKS9tEyyd+1Y+iePPkPyT7gj6KnkOw9yejiXUCf/lW71y1/zgCXaAL9HtGAl2gC/QjkEAX6AL9CCTQBbpAPwLtAfqG3tOEyY186zFAhBGu4N4CyiG9ArM8NOw69za0x4ZvlihLxGHJY9CTKTv8dgPqiGH4NvIecvGjgwX7TAegwaJuw4NID/f+iUF+nOtleiL6rQLYBJtPDuIh9+BPqLaB0TR0hb9vbcGgr2Z/mlnJLiKB1rN3HzfG6QTaeQiz3Wz5n7ooZ3j2lr/1lwvZtMWL8MmYxfwoDb66/2/kKn+JixcPct13/XE73T4C1u6pl2b+JAJdoAv0e0EzfxKBLtAF+r2gmT+JQBfoAv1e0MyfRKALdIF+L2jmT9IE/eOPP4bSWNFstjkRBOjENvFrMUb4QpEvhX7NJgeK2Coy/HczgiNR9i8mJgyrwNNMGK94sxbglGNYP+fL0209N8ceAAQxD+0GSixFD7ps6K+5CHwa85MiEPUptwuWeNMOhrj7+xDPHeiBqtXig0QRL3F+EB+DK76gPc2LQzsvHf67iVHwJnTn08dv/BxWRuZbbLJ+PfKK7X0jpThSjZ999iDXfTbQKmE3z/hKDHaYUrYbU3G1VLOtP8J3viPQBbpAv60S6AJdoC8sgS7QBbpA76I7DPRbt25hkeGYcayiZbWBK9FDQEX8uskFLaTBWTA/52s3eejqYNzBOFHOQ16eG3wJB8yeZloJnwyHypgCvzh5ED7MAHvGBSM8eRLkG8XQPTMO9ilixJhfBpF39Acaw5szf4tamIPU4NYuGB0YUw7oVoT1Ry16guqcEhi5dtYRXVKf7+CHMsJytM972VipBftU5Xvab+FHMiecLsvdd8+4HaJ2V9ArzS4V/VO/bdvJPuOpAbfiTDPTtkAX6AL9oHbm2xfoAl2gC/RlJNAFukBv/SbQBbpAF+gHjecuAf3LL7/8wgTaJLIZm9jmhBGUEshmoBO+pGERtdTwneWIQqKTK4t5vHzy57hi+ao548wJ7FUHGrTjrfI0AYvrbvUJfAKcaGbWsHw1vOo4mhUgjKTIk4MirqwCLxKnO7gHz/RBJ87skwYjNj5NxHLXvDkdPzI7GGt8Gl6JN/Gt9wCRt+SVyGHzmYYRMMUxWzmunid38s8IvyAPD9B9rSovSBE9XTjRegc4tCJutv5kbzsE+F4orcPf5Ous0+WEBLpAF+irUDf5Out0OSGBLtAF+irUTb7OOl1OSKALdIG+CnWTr7NOlxMS6AJdoK9C3eTrrNPlhJqgf/PNN38z3TIBujHOmaifmgCU0DX8Yg+4mAUs2CgixjCUiXKDmgaveZIsge8nKoDrW27y+7JWugQst8wh4EU/asEXjkJkbHDnNr6vGz3JinWUzrkYAXRZR7j6MEWLPDRA/cJT/qQvCy1AZwQ2Ojpi/JRTzd6Xr0UWME3QolfgfwjOOFvgFdnBjw+KNbXMAv5fjxc9P5Z2eGivZapbAtqK4Uq4N+4m8ZjX7QOoNbpJoPd5uS1fabLaxDJVgS7Qp9GbLK9FYY7txl2r1S21a/391RpdLitq7PNyW77SZDWBLtAF+n5qjS6XFTX2ebktX2mymkAX6AJ9P7VGl8uKGvu83JavNFlNoAt0gb6fWqPLZUWNfV5uy1earDYB+t///nfWkX9twge3XNjY6y3Q9gNEcdHfco6tFjFJLXx5Qs6IpAnKiUnfVY47sKexj0xWBCNXPEkWN9uCFlec8I0V4k4ei96vunwAUEGNxwZB0jn35Z8Z9nMLb/tFN9sNoMj2ZVB+NGtMAC/7rX0C7sj7ZVCU+1vy9m7cv2ANcgGzfEFe397BF5qf7N5HDZsAeJpRX/At5Gz8DJG5kSImhfPnDwd9FstKIB/Y4naRPvn0Do212t+1seZnGTe28+vsJIEu0AX69u3v2ljzs4wb2/l1dpJAF+gCffv2d22s+VnGje38OjtJoAt0gb59+7s21vws48Z2fp2dJNAFukDfvv1dG2t+lnFjO7/OTmqC/vnnnxOT5MHeGJxviIFxgCZOLeKIJVjOiPHgi+47E6cWmFf9R+YE0DaoaRUgQJ4jJOyCMKUI0N2Ufs6t6EhptUiPRFPaJ/ptAFjvrCOnKi69XTBDAGik2NoEAEAU8RCP21B4G5+2LviEwSpxhhiN2TSB/c50wBXDswvel1mPpvmew38gTlJm+di8vn1F5sbI4+VqSJt9ju8cebl2wZ+EiSpScl95ZRnQtwxHv92t9bPt7xDPBwOxnOY/V63aePx7fYJRqUAX6AJ9Fc1/rlq18fj3+gSjUoEu0AX6Kpr/XLVq4/Hv9QlGpQJdoAv0VTT/uWrVxuPf6xOMSpugb1jDgiPQQMbytwhMymHZM9qIxHCWLg7ydZrnaQeP6clB/vSrmE2GNzFPO3RCd/Yg5UQtQHBlTTOtEOCRMWesxXQDqgzPyGAAjvFjPGSwcBfpZQzbII0JjKmJxs4P8sWv56hmkwZFQbubd7Eil9mBFm3aChMTquHYp4NIxntuEF/lec9581kszDge4spGQTnpgPh2zFZPPrku6JMht1sXo56mAr82gr21QGPzX2ry4+V2mrfbSqALdIG+SmPzX2ry4+V2mrfbSqALdIG+SmPzX2ry4+V2mrfbSqALdIG+SmPzX2ry4+V2mrfbSqALdIG+SmPzX2ry4+V2mrfbqgn6hhHy0qCF+LI7AjAy4PDBXx0EC1SFdotEvGe89nMuYxDsaSw2UrMHKQJLHiKQ/fgHWgUURmABztNgcymJ+sH+M4PAAKOcHzHb7WCEH5sAgt3mAMLJYFB8B+YP31TO89iuONVMQ5QzYXDr/wVgZGG92zTnFzej3C8YIt+Zl7a7mABiUPYJKIq5y+fXB0z8yKvyX4Bf/Wq9zLjJ6Jx9cP7H2bZ2J6CuyaZ36Gn2xSdftbg75FUFukAX6GNNNr1DT7MvPvmqxd0hryrQBbpAH2uy6R16mn3xyVct7g55VYEu0AX6WJNN79DT7ItPvmpxd8irCnSBLtDHmmx6h55mX3zyVYu7Q161CfqweDR8Zwuq8OA9W/Om/YYHTCADOldD2umzMQsQmBa0r7iuuCxyr3g+LS3ypHVEO1BNl7RvdzALWOGu212MhxYBxQIfUsGSUw3wx+14Bu7iAAR8eZuj2DPOp6fLtO/rQGmVQWG2WwWKqMpDvio2lscyHmrYi/BBGA9Ac+ujds/+ZI2pPUNv8Y8BXtM6uuSzD1m9tGO/8YL3mXivH5h++MM50LcL0VqtVoDvStHUKLYEqwLKrmo9mYc338mWH6/SxNRL175b+10EukAX6FONTZbncc4PateXm3rp2ndrv4tAF+gCfaqxyfI8zvlB7fpyUy9d+27tdxHoAl2gTzU2WZ7HOT+oXV9u6qVr3639LgJdoAv0qcYmy/M45we168tNvXTtu7XfpQn6JqrAO/YgsyzUyy5OHSDuDEQ8YBI4mQp4yCIXUsOY9nmCqo7NBRB4fpBjeXLwwrDm+gJzBU8ym3hCKV4yYF0d9lWjHZ6mCASsb4oYLO46oBhO/HeALNFfmGjWPGyK6DzWhbv4Ds+nYdMg74sFzsgeGRQprVBtTzMeeiPDlWF4+zzkQ2Qqi4NgAdeziSO3mBHTjq+/p+ovTT8xPfbYVqC3QrGlVmBOBvKs9mIhj2cbDCY6ny3asv29P8EyEugCXaBPdT5btGX7Al2gC/SmBPpCEugCXaBPdT5btGX7Al2gC/SmBPpCaoI+LEWPVFQDC/ah94bLiohtfiTaWHntMY+gxVNU2f8RUIha4trIhpg4pZRyt52v+5TiQFD/siPDrQU49fHCcacZp+NN4HP0AyjZM+DxhIv2bYaAQT8m4TnotaZ5S/qNRfI2foYIm6Sc0pNloVIhPtLpQQrnzzMDMURG5tDSdKTYutke2ay/NTnovCpvH1fWKkP/o4tM30ceWXo9er5qsb8X7a2HVgJr+1a3dPV3eOnaJ9t23PMS6AJdoKeHdh2PQBfoAl2gC3SBLtC3i36BfriaoG8wC/8JOA0UApDoJ0SJa3PHsOaCKcymRwdRNWh0d4+YBCzadz+J+oBOffuNqtdc7vFd9EFRBKCGGdMKwMVyUWv/ZU/L86ogCcFgSYu+RxsPxukI/jHCNKTo4iCwBGPAenAQr/SEo0pj1iqWIx8JcJl4LCuPp/kENMYwrJy8N8YTppvpBZ8deIhObGB0SZ7f/abT+awFeiPacsS1aN+VxtkfK73VtGfgbz2UPJ7ioRWI3E1bdy7QBbpAF+gCXaALdIEu0AX6dwS6QBfoAn2vEBXoW+pw0B966CGi53U3232daRxQyq0FVHjnVPVo82NGH4sotKrPuCVMO3BjvYFxuNOsSTXGYYod6oJ2O2mVvLcrjjw8GYj0FqeI8ri1HwcsgBLVjKQAkfqe7UZHYEkN3xvOT3h4PJ/DSvvcMWu4mQ/GNMErUcNtc5bH2s51P6eGL05lwzqKPMOOWYMf3XB/0obI2/P9oZpx+lzHPxiYIkiPe/DBCdAjelpM7QD0dlE4OWFsCfoOwM1WWx7clVrcqVWBLtAF+h6j3kUCXaALdIG+b4sCXaAL9C2627fCzhLoAl2gC/R9W1wG9MunO6QRMyBmMUPgg4dvb3bJyok9PHhmB+h1w53oJOZ9NSVMwQhoMBV4rmcsd4V2azo8byYeqn28kdv1J6mizv0N31AO+ULQ+IcBD0G1AQRTeNsw6FY97cdKXU/m5WmqMk7asbfhLfk+AaiVgx93VPWJkI4oj6nPWqWjcOn98ImoxRWN+TZy8ZF8IuHrPuTiPIf77ptIga1EZ5OuVGuBoK2136pRlC80lGh11xpLfYcd6u7WukAX6AJ93NuuNQS6QBfo80Er0AW6QBfoAr1Sd7fWBbpAF+jj3natcfeCvgkXElmJfhC2CALvyE4lmg1GwguKCHyPzkjUDAvZgpNAJjBBBgvcauEeU8SVn/pwza1lirCuP9yIGYjpwLNx37CnIzuV+sxDBmjs5IYr7svTqcp70Tn5tL4JHaA74xf8LWOvNz6G44SrD3pc2UxJLT7G40lMADwUyapWFUC5Y+g8ae3wKcN198XtOUH30kuDcPtph6Fgvf/iF9unwLYCMBdtF6KtWjVwd9V2PW03vMon2L/V5bXn+wp0gS7Q00MCXaAL9DOhtVugCfSFJNAFukDfZTytYQh0gS7Qz4TWboEm0BfS0qBvYpgwIrYvD4IkrogqfjQbHEawugGFOLVIhCRiDEofHUTs8TQBSwB6mFIVhGnRLsJTf9VlhzhQwXJh3+MKBDzAw9XnSRsYoJNySpfcus1OrfhXg10wM2Fwx8Tm/32I+rRj7QebfAdex5oONililrHRkZP6e1cgaeJL8WUZ3guD4kennb8L343B8pCNlY5i9kG//vUe69GLWGqwMB+TrVpLMb5X57O1inHu2uLyU8R2n+CsBLpAF+hbSaALdIHeDscdg1ag7zYWgS7QBbpAd00tUyXcyUQjyg1v/CdAD/vH7mA2ksSobyaRu2AXiNXnBhHu4EENQtRJim3nWBDrxzbQLz/yuF0wAfzZdNmH572BQew2Z4yAB7MPL0cNd6mgiCfJ5bNnqOWLWU/OS7QuY1krtPMxrKPAD4Txzqz8vDtyT7kMP8j+kYllqiBpfdMEd0G7EUxHTHOWF/gxH8n9S35ksA8NbTNOGuPwSAY1acYVgdkCejvQK8HZuu0FeuWh1mAPbPowTb74NuMR6AJdoM++l0AX6AJdoK8vgS7QBfo23W0/xtZgD2z6MAl0gS7Qt+lu+zG2Bntg04dpPdA3tDjeJ/r/2zu3dkuO2gw/cxdsCJgYcHyAOD7EHjznsRlmbPAkDCZxiCGBPCE3ucj//w/ZepdbcvWSqrp697KfeD5dra5WSareenWhXdXtHwoFJ1rdnl/gh35sR7N0JMHB8pafNrV0j8JAFoKA2Qdcakv03+0eQ1j9wuSPJtZojm+ZxsFOg+IN/yoDwbpfCKAxDctwZiFCkv+v4CS/XITtgJQC7C8d+Q+jirESm42j+EcCx0INahzxDQUKBs4tClwyBOjfMTEf/GMgeu1YtIVQ+QiWoADdPkzL86EMYZHIbPUMvWRCwXjF5Mc/nntnXJVQ2c1hAagmJUk8xvt44LbVkAs5Hzrq0j4QgS7QBXoRz1j1UOdDRwJdoAv0Q0SgC3SBLtA7K7mcCHSBLtAF+kbpfU2VLAcly6V/tRxmiGxji6rvfCXxSVgSDUr9mGecAQXch4uA9ycuNvSZCZ9m/cjF7Nt219/RXbfDqf8G7ab6qQsnV73UxMlS+s7EYzkPcG87Aoix7+3xr6Dq/z4gznsuZosfPAc0WKYNgWVs7cW+1zqeT3T1bRxvjPOvAG4akfFfCR6BL4LnRtcdxvkj2DhPBWPEQ52w1YM3V2wKxu94C2wXOE+5Kh8zlhPVbUCPpUvFZg4Gklgd2p8NIDPdDg1Xn/1dvhSBLtAF+lASq0P7swFkptuh4eoFukAX6NeRxOrQ/mwAmel2aLh6gS7QBfp1JLE6tD8bQGa6HRquXqALdIF+HUmsDu3PBpCZboeGq98D+sI4KUeL1xKHXCKtyTHy3TIRlqNBTKp7TjLJj3KzSTPeuYb4oW5cAhC/8GsNZTZ8/skExkH+8yvhBy1n7PhOUxzRXX/Nv2NgBhmiIc44iNm2UAoArXoa1v6CO1ZDjaIU+HNgqRQSno+vF/uEHovzfySgH616C5GAGcI5oNs9f/ndbZzfXs668zzR5x15PEYrhIxTkFDlYXu5wTQn01n0W291PuBQ5VJyOZPgVWL2cngsfXBGcW6UxFviPNOYiLOwuhrf9Qi+FIEu0AX6yMTKW+I805iksft8EqsTpm8IdIEu0McmVt4S55nGJI3d55NYnTB9Q6ALdIE+NrHyljjPNCZp7D6fxOqE6RsCXaAL9LGJlbfEeaYxSWP3+SRWJ0zf6IB+lTiP/KQ5KWp4kzikFynNuBEQOQliZKE1yukZk7WkNOO2dxZiqBU4oYVssDMejDPduutoseuW3a//uMhfTMhyWKblbIG97QLVviWUKMAABlmOAfS3JmwQRZ91Wcecmub/Qzi9/tIeCHYIkcXxzwIb+qULtQv7Ns4Cccnz4ab/B4LnSSGBRqsJLDXOwbMSLxg++yMisMY6V5j2WnH/54swTsOdZb799gj0JMGzX0k+Jlk4RLWrMJx9mCTxJOvtxl8YXI1lN6t1JaG0fjcvT6ALdIHerCuLv1plon9ucDWW3azWlYTS+t28PIEu0AV6s64s/mqVif65wdVYdrNaVxJK63fz8gS6QBfozbqy+KtVJvrnBldj2c1qXUkord/NyytBv/OlkIUkjuNN4sMZAPmhSWgHDVLUCAgWMAGSps9ON2ZDBdxYzgNEgM52NzPI7KgaTDdVmnGUj3gh291FiJ+g8GRbz/yldad2ne+OQ4HF4ck7WpAdm+K8+vBUohn38dLoQyvO1OLJYI9aESXRcAXEON7r2wqjwCAEa/fQxyoRP/D37C3dt/uxp878osVT8e9J/vS11/a+My7J+Sz7C1A2slPldqVxuFSsdSPoPp+NPncvbou+QBfoAr2RleltEXSfz0afuxe3RV+gC3SB3sjK9LYIus9no8/di9uiL9AFukBvZGV6WwTd57PR5+7FbdEX6AJdoDeyMr0tgu7z2ehz9+K26Pe+pkrD1zdxgTyZRVo/9e8nGLykL9lPlpPIhp/tXvucIZCkOlgRYH8bGJO19N8fL4Lp6Lp7Ix6gQQANO8zKUGw7I6UtyW+7fOxiJJHuTOIApx8cfce/NsE4wJn+6h8PUGRD8T+HGLc4MU2vPd7uZgE/9G2ChO79dADFhNfST2zif5igzwFUgrrXCCz73r845Ionftmfil4774xjhez4G3/AoU2hbibOcLlHdaOxCpspFs5UJ6JOZmb6QyfddV1HBLpAF+jns5MQu1EnMzP9oZPuuq4jAl2gC/Tz2UmI3aiTmZn+0El3XdcRgS7QBfr57CTEbtTJzEx/6KS7ruuIQBfoAv18dhJiN+pkZqY/dNJd13WkBH3ZUkkOe3edvZ60xklM8roh/jGAQrXBS7qvuu6mEB98YAjQzRbsk+X8wqypchUFg/phppnNTZiiMPib63DCEDMNj2j0R2GwSnPT982CHtXEG9b0qm+5LP+PuEP54HV6BGWr5GnhF5eAayHCJld0172dzvFYHg36rMQMUgjRIH4Ateg84NM77Fi03WMIYwDNPl67+p7JV7/dcCUvvNDZArvKwjYTu4nZzf7dJjbaT4KtxisSujcr+xPRJQGMpx8nAl2gC/RzO12tXdElAYynHycCXaAL9HM7Xa1d0SUBjKcfJwJdoAv0cztdrV3RJQGMpx8nAl2gC/RzO12tXdElAYynHycl6PdOL1/7gGwj+y2twSNo968XkKaMP3PxRjmHq0lY0PDdo6Tp5/7qN0twrsA+qPC2OZP+3QT71nUnCnIe5P2kOd6YTWT+CjZ+oIpFVugbU6Eo+uB+6ptVMsQv31gLoLDpW3ifeRXzXa68So/Zjv2pNNk4WDI7nCzbh0+CCW4+WoRxag7B2o/YAEy18hZ7fAOWr7XSf5/dAlvm7x7ZmOATdm70ok5sVSS0+on9RDXxdiMZ7zrvam0LfYsIdIEu0Jvplf1ENfF2IxnvOu9qbQt9iwh0gS7Qm+mV/UQ18XYjGe8672ptC32LCHSBLtCb6ZX9RDXxdiMZ7zrvam0LfYsIdIEu0Jvplf1ENfF2IxnvOu9qbQt9i5SgXyXUEz8JTgJaIxuWGSfHyDtLfA6IwxQ5SSpaWsf7H0HAT0yT21QBtniS+KbPNxrQD0q9MDD7ty6+xTZcwqXvTmU2waJv93B5z/vvVDEjj8Y6oLCF1JvzYIl9VgiqXvnCvn9Hwvf4nuLn0ubEyx6JjGDNBAUjXhr5dPkPA458I/GvWLmbpkbFTVsv+qwLv/Tfv3slfLGBhnu8/nLm5ZBJInfHq6wdalV2uiy0l2PT7aQMhz2hTGsULlcmhjfLRaQi0AW6QC9ubgtlWqNwuTIxvIkog30AABlfSURBVFkuIhWBLtAFenFzWyjTGoXLlYnhzXIRqQh0gS7Qi5vbQpnWKFyuTAxvlotIpQT9KuPihWyebeR2ZBunIy1DAY50hDXyzuaEKkMkshGDPuzDOPXjf68EIhkKepcPFX7lJKd32J54JzDaZnZIFL94g+Uni7AQ4kHVe3a8OA56cYk7m0iTawWo/SD0GCcCaw5yFWdk/WHwoGDQN7P9zApn9BH9JC3b5rATZ1uJ3SYSou+rO22bs1DY2cd2QDxRsl5ahI8schPu33tv+0cWk8xtM3Sc2xNSJfJ40rYoVmEPWZsNvZ3Z5a5yl90s4tnEt4tAF+gCvdCaDT1htpLKXXaziGcT3y4CXaAL9EJrNvSE2Uoqd9nNIp5NfLsIdIEu0Aut2dATZiup3GU3i3g28e0i0AW6QC+0ZkNPmK2kcpfdLOLZxLdLCfqzL792GjR6L9n3e52+1uBAkKtBlzEFwXESlY1sNk4NQfXPJsbI7/9wJbSp4w1yoGQs8Bo29ANtA4grQgzarRzQI4cpaCEyc/nYhZkOVjSyWQmcGSxsMXOtX3g/HVXYoVv+L4vwoFCNr1/4jjnKBHGyHHuAgM44EfDLHzirQQO+bdwf+C/iXx8WD6HEWVvC9nOpP3P5kcnrr28HPUmo6wGxUXoJXum3E8f/Bcj0uzRWNxPTicJwdqbavTklAl2gC/RkemsiIadrOlEYzs5UuzenRKALdIGeTG9NJOR0TScKw9mZavfmlAh0gS7Qk+mtiYScrulEYTg7U+3enBKBLtAFejK9NZGQ0zWdKAxnZ6rdm1NSgn6VS9AS3d2HyzcduCLVvbnNFWlNN9v79TDLzX92sTfC/Y8JVQC0eUWawf47b8lHlnuCQwu1AlT9w6uYiP64JX/0+ONfAd6IJ8R4UZsXqjgpenfpcHMVDXGcL8XnXmylxa+5hFS0iMC3/HKFHRbtFmMjLluB/S13PLformPfKx+T6K5zCtWuwBjQOZPqO18BHbxjC+zt23Nd9xUGRVof0bqenVmBVcWTxL9aRM/Oipxd8Q9nDyfuFYEu0AV6c1nZWZGzK/7h7OHEvSLQBbpAby4rOytydsU/nD2cuFcEukAX6M1lZWdFzq74h7OHE/eKQBfoAr25rOysyNkV/3D2cOJe6Z1Hp49MogGWgUvie7o/osVreATjiDeN2XLqmJ0OpfuHVOm1+9AX3rX20+wnbmzID3yz0fT3viM2TmvDjrfqo3uPc27aQiCYEGHKuQmmUPUw0I+aQBimQOHBDv99YKYZhDUa/cz8dBFUART7XiLiyv9hwLlzHj0uWSqlz546TwvTvAOOc+fWcCcK/hr03wHaNr7amfTv/rUJ31WF9jffnOu6d3N1nPiHSut3+5wM4Rn93s0VUZVqcjWxknmyVyLQBbpAH+r3bq6IqlSTq4mVzJO9EoEu0AX6UL93c0VUpZpcTaxknuyVCHSBLtCH+r2bK6Iq1eRqYiXzZK9EoAt0gT7U791cEVWpJlcTK5kneyUl6FeJQ1bFOWyDkSE+IApT5KkfwQ5Vxo1BCKAwRNUwILDDV1NhHC4tmTEdNQF9/2pqjDsfcU4dKpx2WPD/FZy+52Cq/NcAGjmy7cfrozePRX4Zy4TO4rDIL5tDPCw1tgLbuvyLEKfqgDtrg3OFFp829R2rETW7YqkHHn/8F4B3ZlrlY5zZvM6SZrvFz5HzH5qwK5Zf5vdlkxdNKAw04V95pfMBh2HGrXJvQv8I6eFRsdMFsecomzS2n0ysbLVj3TiTm12/ZyLQBbpAzx2lcA7tJxMrW+1YN87kZtfvmQh0gS7Qc0cpnEP7ycTKVjvWjTO52fV7JgJdoAv03FEK59B+MrGy1Y5140xudv2eSQn6knaA5SBCANkZb30z4KJlxw4yZvoHB9juRtsMNHwnHVbJfsyaCfpn9OH4RcfMZqOKk4hnsfWUE6GBvP246V9xAHTCsNkEhvNHzrf3/7BPsDg3VbRYEqqYtfXGcVEohS4bpztGUwxVLm8u4vv8nj1chBBp0rEI/NoQLhli8xvOvXzgjRpCdbAtchBP0w3kaca9cCU/MfmOyfdMvm/S/tFXoK9ScQhckrBddsamt0mXogqUcRiF1WzOBGStfhbUpMEdItAFukBvdBOr2ZwJyFr9LKhJgztEoAt0gd7oJlazOROQtfpZUJMGd4hAF+gCvdFNrGZzJiBr9bOgJg3uEIEu0AV6o5tYzeZMQNbqZ0FNGtwhJehXuQR+oMTZSvsBYbAA1bSuDcvPXKgCcGBk82EEVKGXfLccfupCvmPRwAI4/LIDDmPW+EaVljzde3aoWaWJN9EBHC1wj5NJgeQCO23/U3+c+A109DGBy2eLUBPiEYCYkQSzUUOYZPEzBKBRSPzHu95/5zmYrWisx9v4bDbR0V1nkldP/NI75yQq292McYiPKvMDE9sUhyoNd4b4k7/44rW67m12jhXOM3pF6djl9eJJQtkVfzY7GfdfXe4q0xcTgS7QBXrPYAJNdbOd3uWuMn0xEegCXaD3DCbQVDfb6V3uKtMXE4Eu0AV6z2ACTXWznd7lrjJ9MRHoAl2g9wwm0FQ32+ld7irTF5Me6GBD1jp6pDsNdOiCA4OFBIRB9rXSkrfkZ+JjlzbxoRR6ORbaHoOFZX/7mn3c4Q+8aA47f1g+9hC9+UDGAiYwqCYCQPEePEt638XLAfFjEeRNlfIUW2+pQ85UnKTll3/FlahxTiGxnjo/oNcZ/7m/bO6uiwMNmzx/hmixW9TYoZUeVJsdrLK7lk2vHEe1N8WhSg+em5jtgr5KxS4tPa2Em436ExIWk3havyvpWSw9JTeLoa5s0zpaBLpAF+jNpNJTcrMY6so2raNFoAt0gd5MKj0lN4uhrmzTOloEukAX6M2k0lNysxjqyjato0WgC3SB3kwqPSU3i6GubNM6WkrQr0CMrxr8avkCajAIoGSzH8hmKL76sGzbPH27gb42fBup0Sj/tR/vtitw4lsG4cmKQOAHjXiyYgJmVBlqBcasTe0B3H/gO1mNeHabwg6T+LV05B89ccHYz5d/PHjv/ze+g5ZHE/t+/aQ5+hQS1uv/t7jjrXS66O8tQjzgGl13wxKy2dKKPoXBv4kKxmyNZab9YwPTsEwBoNnu5QAnWGTSu+9eC/RZIMbG9kjipA3gRqu6kp7ZzFM1sfXbm/hNi0AX6AL93M7KUzWx9dub+E2LQBfoAv3czspTNbH125v4TYtAF+gC/dzOylM1sfXbm/hNi0AX6AL93M7KUzWx9dub+E1LCfoVU3FOGsQsaUl3qPuLCXx8sgjUxacHDEQIADga4tz885VAkm/4vAMyNhvQ/8nRxp2ZoNvvnzE4yXIW/oRr7I9doD59tiFOoPtuVqiIxfl/E9hHSgS+QZe3MmIszs1bdPESyHgZphMP+yyCJr+BSHufOGmlw59dMZGb2AF+wxWgYZOXQAK0QQrjHDlHA32bjQKgc5PCYI144qTrDuM04bsfcIjMmEUvyfJq/Hr2xybaFE+GVlXgKL+Zp3NZ+R3qHyMCXaAL9IP8Zp7OZeV3qH+MCHSBLtAP8pt5OpeV36H+MSLQBbpAP8hv5ulcVn6H+sdICfpV9sRJS6izLW/kMP02EtnPhtI1e+SCvjEIkeDHsVNS2iYGiNBFPlrDD7oYx45zTDeQIZpc0GhWwRhjuPQX0xFnnEllpiU+QwQVBcybesyGXvzaFavEBIUBT7Zee0/bm6zm1y5mH0dcRaEyrfsuMOh73j7xrzLwHLwhh2mGYBOg7Vwqx35ty9uPfuhilQDVt13o4NkCccR+OEAH+du3R8dUIwt72bxxPDG2SvriZpekbnRVPEOXWZwrjXOLZYyFDBUuIgJdoAv0wmcMtdBU9jOL5zJUuIgIdIEu0AufMdRCU9nPLJ7LUOEiItAFukAvfMZQC01lP7N4LkOFi4hAF+gCvfAZQy00lf3M4rkMFS4iva47FMEUVNgPGKdFTUrDgX85gav/NGFv2/KRhVMrnX60f3qUIVjwBvFNA4tyAMuo+kcO+BGb3zD7xyuBPOiNPW+GDaBjB5SYZD1prjAG4wC97F6LN+M99aCwT6HivwboG2t44/nE/xVMPw7Lfu7/dPAHRRedTWt03f21cKw+Cp4F5udYb73p32ewdjrEw7IPveE/Ygecf+KB2dyke8+vt94add238TRUKNUi/XrjY/ttKlcaqygq3cpOAs1G58XsTCZUd4pAF+gCvTHWdbKy03VezM5kQnWnCHSBLtAbY10nKztd58XsTCZUd4pAF+gCvTHWdbKy03VezM5kQnWnCHSBLtAbY10nKztd58XsTCZUd0oJ+hULpG+kojECBlDquX3TigBX8S0G+temBXBgSfbzy8+xPnMNf3Ec4+BKIaFr7aAwBHUg7J+LAD8Qu7N0mhmC6vt+Wtb32sY/EqgmxjIBEz9sYsxgYSJR+Ovo+G4rREZD/84isdR4d57VLqxCXSBs+rgEXIIiYrtHJWARAbR10n/qwjg+7Qcm+KZDHF+1wkabHdWoJvUW2DwBx1nbpXGbzNrphlINJZ66k1qNbHwYdRVnN+JLiEAX6AK9mNRqZOPDqKs4uxFfQgS6QBfoxaRWIxsfRl3F2Y34EiLQBbpALya1Gtn4MOoqzm7ElxCBLtAFejGp1cjGh1FXcXYjvoT0uu4kGlkF7ZZUpOmnLpyAtkwHCG6S/aBhB9bBiWyOTa82FBtlkWdLR5/ZsR8Vqs0W7GMCTwBhFeJD30cKenjyl6xRQ5zBO8vZ8L/HORpeIgCRfbzEg0UrAvFaOB4BBWA5O/8pQ5jwzbZegT4DdIxZLYrQw7mfxqfcEL/v+2UPK6bR+GDp0AMuVy+Y+L5W9sK+6sK4/2DR0P5lH3/TefQkHZPEX91MANotYaI1thpP4tw2XvlcRZA4n1hcN6jxzeNEoAt0gd7YXkWQOJ9YXDeo8c3jRKALdIHe2F5FkDifWFw3qPHN40SgC3SB3theRZA4n1hcN6jxzeNEoAt0gd7YXkWQOJ9YXDeo8c3jpPc1VRrBZBuJaYlGQzmOZpPgyxnwT7mCEdud+kfLdHIevOmPg8zSkX8Wh70ZNxAB96ZvPsWd9+Bxgiqpblp0pwGFYG8tctMPh2PHYQcges9MQs0M+lsoT7t0facsVsHbG/Qf+aFxxtmUykzrsEP2Yy9BLNrKB4+A50MYjFuchMhNnoj/s4CFx7ceiNiePy+HhPbXXPxzDtxkiy2ffjAtvLErNk6s3727veveZuK23J6RxJOPd1Ur2aifmK4mdccrOz373UnbVrlDBLpAF+jtMqvl90ys7PTsdydtW+UOEegCXaC3y6yW3zOxstOz3520bZU7RKALdIHeLrNafs/Eyk7PfnfStlXukN4740h3GAcsS0LYJPtJZBLTrsjhJ34A9QsT60t5l+opM7Foac3+OZpf/HIOWqv3vUNFFLAWb2uz3WIogN9NF0trEpzmF6b5ZUlOt84Pyz5BzWZTHe75Cv0VdQ9couNn+PEDBrmJfftBLYodf/Tm/MsS8W0L4vfaBdXY4Un5RyLjhKp/z4E3yPHOOO+3vfrSlbQtuFdRsyIA4xSA0Oh+ZLHCb1um75IsLYc536WiG3Fiv4pnG3ozy6yGtnvbKwJdoAv0Ip5t6M0ssxra7m2vCHSBLtCLeLahN7PMami7t70i0AW6QC/i2YbezDKroe3e9opAF+gCvYhnG3ozy6yGtnvbKyXoVwkY2QxAhoGfr7xDYgKEgcIVuc3r4qDX0vq/TEh3qAZJy3RYcOw/JsGNwbCPXxDwHrb34D8k8e0HxBBFtMYt1mDnN83GOpaEN/yib5CizypveTPc1kubmptsAqTeWPuaK4y1LXas+pviHnFM1Yoe5YNQeBj8siFm8zB4NDwRi4LQiYcQv2tizPJfBjBmuxsb4gxeAvuBSeyAM7LRB3QrBy8B+q1bO3bGJXmdZO60bLNfaVVD7a9VnJWJ7s2upwOk8nScCHSBLtDPL7v4Hbb83nM4WAS6QBfo55dd/A5bfu85HCwCXaAL9PPLLn6HLb/3HA4WgS7QBfr5ZRe/w5bfew4HSwn6stGURCNxls7yg2DBaWGIFjIp/ScT2wbL5xzYBwuNqC0d/HsAEX12k3AZpcNPwCL+oVDe3bYClLy2iURHFaAhDpdWSGIXbbyFzgQ78Q8GmtWmzw/YYRy6DHSsUov8xGkIxmD22SIcWgXv+C+AVxpU4+sU5jfWGyu088I04mmgs9WVy+VjEKfo/sqE/a7fv5KfuFCyeG7vv78X9IqWiRwep/UYsUKhO35pwjY+h+bHBcKoRaALdIF+fdn4HJofFwijFoEu0AX69WXjc2h+XCCMWgS6QBfo15eNz6H5cYEwahHoAl2gX182PofmxwXCqKUE/Sr3HvnmUyhygEjTh35c2+6h9cA3gdJa/mIRchiqmWm7O/nhp775YOovzTSZCIi49M224A0V0MUkKwzoo4UGv2yILaTEE0fIDbjPXIiTmwYcVYZFYBG0/2ERXIaGMRUfKOUmwfoBfQSggdz+DUGZY5XcBOj7ixAnz4egmi9O3IkPZZhLaheMv2jCeXS7opLRU4+vplqv3SvET6kCFIb33uuAvp/NiQRvJ210MpTM2DCwa8qI7r7PY2Ppi0AX6AL9ej4npJp9RCx9EegCXaBfz+eEVLOPiKUvAl2gC/Tr+ZyQavYRsfRFoAt0gX49nxNSzT4ilr70QAdQcvXXy0cIgpGgyJKcni7gQiN5bbMhPs5nsw/W2CHn/877xaSikcRsmAIULFq6QxjZ70x95DhhjNcyQottcI0Nscxk06vpE4VvcD0dPjeD4IpV9OHbTOCSGkKrm4JhURMFV8QPksYUWGIMJOmz2xA/cI5fLwUEzHhs1bVxvGECixQ2fw8m4/E1VdseG6f0eaiUAnumVAIYB3kW9847I9C7adom5jam/vt8YibdxJ+EKNPvxn+UtOsdPx+/eWgUZyLQBbpAP1La9Y6fj988NIozEegCXaAfKe16x8/Hbx4axZkIdIEu0I+Udr3j5+M3D43iTErQr9gkvUCVBLR0hHGwgX0S1jB+4AIa1AN7VxrpCxWogqThxOvToJRx3weGKjkJXURg+qsEx5MFAN64jLev2RxMAHRsWDOX0ULEPsdpzVZ81JAw6G35jry3/W1zgPXOIpQDzoCiYXhj+p63Cb3A+EviHkU70xj/hVefD3zDoIUCm9COfYzZOP22YBY1e4McT4WobT/c9//GxNh/2QT2qaWovfzyaGfcODuHYI3tdNOyUqjYaRW6do5HeyLEiUdwsAh0gS7QjxSBLtAFukAX6AJdoDfGqnGBvkcEukAX6EfK/zfQr9KaLPTNZneMeDKXdIx3yRko0f2OM5remCbRSHVu+pY0/6boLZrPZgd2SF9YRv/jRXwf3qnr/mypRbG9DH2LDtNUB1Shy98UR3Rh+t4irOaxi5EXhQf7eLKF0OUmWABlcaYKazdd/L8ScRaWf0FQlX6zCKZ5xBQAu6Jbzhvh4gyuV5pb/n8CIrBDqFFuYJknbrUoCsZbLm++uf0DDr2cLKmu1Pboj0PxsQqnTLoruZ608WwL4GsQgS7QBfqR/LXxbAvgaxCBLtAF+pH8tfFsC+BrEIEu0AX6kfy18WwL4GsQgS7QBfqR/LXxbAvga5AS9DfeeIO0I5E9cx2KewGoZVYcEiWH7y4SoEAXiW/pzt5TqkC8IM5goZvNOFWG6QZj7O4kHj6MYOwQAABFCTJHAPSRix9TpQBEgxtQLDoU4kwqy7G2NmA9dGG6DeEyaEcsHn6w8qg+Nk7ABMXuYAqJ/WfC/03wkFLg/7cAULBE45YXC3cSGu0JXkKnxe6riYJE0/6llzqgj6UCpVKdSPAW1bGxLtrt+Kal9YPK7FSmu5C30Y2dH1IYBLpAF+ibghLoAl2gC/RNwQp0gS7QBXptZ3/8X4pAF+gCfVNQ31LQ7532Yr7rjWMEEBn/uGmGR0I98Ca8jUfvOaqD5SQKZC3jZOHy0YQTTpSCTxYJLH037mMbjy2kIA9FZgL7FIZAybfw4pdJ3LSAmR3/SMCTNb4JmKsnLv6/CICOk/g2xEJ4BGzOJQwDGm9PXfyQfxzV5xf2fSswLPOwcWLeeBkcD4O+PKXGH2wUAG6+vwjYe+29+/rrI9DH4FY3i6uNsxMWuhqt7syk3iqr2d31jkMcxn9ZEegCXaAXMo5nIsRh/JcVgS7QBXoh43gmQhzGf1kR6AJdoBcyjmcixGH8lxWBLtAFeiHjeCZCHMZ/WSlBv//Vc9Xw5Bs124b1TceVBI83MhpcKESOeV8+GvroQ7UREFtFyXlKxHLm/RlWoYJz5NbDRj++joAd3+W62kXrhQEBREqKkeRvd7zJFlLqmbEDKJQJ4sG5LZWCQegPva7YD4bQwiJVyVQJkYfEI8CY+SY6VFkcEZgJyMY5jXW+h2pxxsseoff+UlxwxCQ/Lf+O2WE2fuN9AB98sKnr3k3A2eScYDAhYJaYo8Bq9VcT28vs5nDo0vLV+AW6QBfonahDfzWxvcxuDocuLV+NvwRd8m2WHHTJt1kE+nMoAv35kxR0iUTybRWBLpE8ByLQJZLnQAS6RPIciECXSJ4DEegSyXMgAl0ieQ5EoEskz4EIdInkORCBLpE8B/J/aAvoQ9+dBCcAAAAASUVORK5CYII=;clipPath=inset(0% 0% 0% 49.67%);" vertex="1" parent="1">
          <mxGeometry width="275.73" height="547.81" as="geometry" />
        </mxCell>
        <mxCell id="_h1ouXhckzfPP8V2IBJ4-5" value="" style="endArrow=block;html=1;rounded=0;exitX=1;exitY=0.75;exitDx=0;exitDy=0;entryX=0;entryY=0.5;entryDx=0;entryDy=0;strokeWidth=6;endFill=1;" edge="1" parent="1" source="_h1ouXhckzfPP8V2IBJ4-2">
          <mxGeometry width="50" height="50" relative="1" as="geometry">
            <mxPoint x="304" y="244" as="sourcePoint" />
            <mxPoint x="353" y="410.5" as="targetPoint" />
          </mxGeometry>
        </mxCell>
        <mxCell id="_h1ouXhckzfPP8V2IBJ4-6" value="" style="endArrow=block;html=1;rounded=0;exitX=1;exitY=0.25;exitDx=0;exitDy=0;entryX=0;entryY=0.5;entryDx=0;entryDy=0;strokeWidth=6;endFill=1;" edge="1" parent="1" source="_h1ouXhckzfPP8V2IBJ4-2">
          <mxGeometry width="50" height="50" relative="1" as="geometry">
            <mxPoint x="304" y="254" as="sourcePoint" />
            <mxPoint x="353" y="136.5" as="targetPoint" />
          </mxGeometry>
        </mxCell>
        <mxCell id="_h1ouXhckzfPP8V2IBJ4-19" value="" style="childLayout=tableLayout;recursiveResize=0;shadow=0;fillColor=none;aspect=fixed;fontSize=14;" vertex="1" parent="1">
          <mxGeometry x="360" y="301" width="220" height="220" as="geometry" />
        </mxCell>
        <mxCell id="_h1ouXhckzfPP8V2IBJ4-20" value="" style="shape=tableRow;horizontal=0;startSize=0;swimlaneHead=0;swimlaneBody=0;top=0;left=0;bottom=0;right=0;dropTarget=0;collapsible=0;recursiveResize=0;expand=0;fontStyle=0;fillColor=none;strokeColor=inherit;" vertex="1" parent="_h1ouXhckzfPP8V2IBJ4-19">
          <mxGeometry width="220" height="40" as="geometry" />
        </mxCell>
        <mxCell id="_h1ouXhckzfPP8V2IBJ4-21" value="" style="connectable=0;recursiveResize=0;strokeColor=inherit;fillColor=none;align=center;whiteSpace=wrap;html=1;fontSize=26;fontStyle=1" vertex="1" parent="_h1ouXhckzfPP8V2IBJ4-20">
          <mxGeometry width="40" height="40" as="geometry">
            <mxRectangle width="40" height="40" as="alternateBounds" />
          </mxGeometry>
        </mxCell>
        <mxCell id="_h1ouXhckzfPP8V2IBJ4-22" value="1" style="connectable=0;recursiveResize=0;strokeColor=inherit;fillColor=none;align=center;whiteSpace=wrap;html=1;fontSize=26;fontStyle=1" vertex="1" parent="_h1ouXhckzfPP8V2IBJ4-20">
          <mxGeometry x="40" width="90" height="40" as="geometry">
            <mxRectangle width="90" height="40" as="alternateBounds" />
          </mxGeometry>
        </mxCell>
        <mxCell id="_h1ouXhckzfPP8V2IBJ4-23" value="2" style="connectable=0;recursiveResize=0;strokeColor=inherit;fillColor=none;align=center;whiteSpace=wrap;html=1;fontSize=26;fontStyle=1" vertex="1" parent="_h1ouXhckzfPP8V2IBJ4-20">
          <mxGeometry x="130" width="90" height="40" as="geometry">
            <mxRectangle width="90" height="40" as="alternateBounds" />
          </mxGeometry>
        </mxCell>
        <mxCell id="_h1ouXhckzfPP8V2IBJ4-24" style="shape=tableRow;horizontal=0;startSize=0;swimlaneHead=0;swimlaneBody=0;top=0;left=0;bottom=0;right=0;dropTarget=0;collapsible=0;recursiveResize=0;expand=0;fontStyle=0;fillColor=none;strokeColor=inherit;" vertex="1" parent="_h1ouXhckzfPP8V2IBJ4-19">
          <mxGeometry y="40" width="220" height="90" as="geometry" />
        </mxCell>
        <mxCell id="_h1ouXhckzfPP8V2IBJ4-25" value="1" style="connectable=0;recursiveResize=0;strokeColor=inherit;fillColor=none;align=center;whiteSpace=wrap;html=1;fontSize=26;fontStyle=1" vertex="1" parent="_h1ouXhckzfPP8V2IBJ4-24">
          <mxGeometry width="40" height="90" as="geometry">
            <mxRectangle width="40" height="90" as="alternateBounds" />
          </mxGeometry>
        </mxCell>
        <mxCell id="_h1ouXhckzfPP8V2IBJ4-26" value="14850" style="connectable=0;recursiveResize=0;strokeColor=inherit;fillColor=none;align=center;whiteSpace=wrap;html=1;fontSize=26;" vertex="1" parent="_h1ouXhckzfPP8V2IBJ4-24">
          <mxGeometry x="40" width="90" height="90" as="geometry">
            <mxRectangle width="90" height="90" as="alternateBounds" />
          </mxGeometry>
        </mxCell>
        <mxCell id="_h1ouXhckzfPP8V2IBJ4-27" value="4913" style="connectable=0;recursiveResize=0;strokeColor=inherit;fillColor=none;align=center;whiteSpace=wrap;html=1;fontSize=26;" vertex="1" parent="_h1ouXhckzfPP8V2IBJ4-24">
          <mxGeometry x="130" width="90" height="90" as="geometry">
            <mxRectangle width="90" height="90" as="alternateBounds" />
          </mxGeometry>
        </mxCell>
        <mxCell id="_h1ouXhckzfPP8V2IBJ4-28" style="shape=tableRow;horizontal=0;startSize=0;swimlaneHead=0;swimlaneBody=0;top=0;left=0;bottom=0;right=0;dropTarget=0;collapsible=0;recursiveResize=0;expand=0;fontStyle=0;fillColor=none;strokeColor=inherit;" vertex="1" parent="_h1ouXhckzfPP8V2IBJ4-19">
          <mxGeometry y="130" width="220" height="90" as="geometry" />
        </mxCell>
        <mxCell id="_h1ouXhckzfPP8V2IBJ4-29" value="2" style="connectable=0;recursiveResize=0;strokeColor=inherit;fillColor=none;align=center;whiteSpace=wrap;html=1;fontSize=26;fontStyle=1" vertex="1" parent="_h1ouXhckzfPP8V2IBJ4-28">
          <mxGeometry width="40" height="90" as="geometry">
            <mxRectangle width="40" height="90" as="alternateBounds" />
          </mxGeometry>
        </mxCell>
        <mxCell id="_h1ouXhckzfPP8V2IBJ4-30" value="4913" style="connectable=0;recursiveResize=0;strokeColor=inherit;fillColor=none;align=center;whiteSpace=wrap;html=1;fontSize=26;" vertex="1" parent="_h1ouXhckzfPP8V2IBJ4-28">
          <mxGeometry x="40" width="90" height="90" as="geometry">
            <mxRectangle width="90" height="90" as="alternateBounds" />
          </mxGeometry>
        </mxCell>
        <mxCell id="_h1ouXhckzfPP8V2IBJ4-31" value="14924" style="connectable=0;recursiveResize=0;strokeColor=inherit;fillColor=none;align=center;whiteSpace=wrap;html=1;fontSize=26;" vertex="1" parent="_h1ouXhckzfPP8V2IBJ4-28">
          <mxGeometry x="130" width="90" height="90" as="geometry">
            <mxRectangle width="90" height="90" as="alternateBounds" />
          </mxGeometry>
        </mxCell>
        <mxCell id="_h1ouXhckzfPP8V2IBJ4-32" value="" style="childLayout=tableLayout;recursiveResize=0;shadow=0;fillColor=none;fontSize=14;aspect=fixed;" vertex="1" parent="1">
          <mxGeometry x="360" y="27" width="220.1" height="220" as="geometry" />
        </mxCell>
        <mxCell id="_h1ouXhckzfPP8V2IBJ4-33" value="" style="shape=tableRow;horizontal=0;startSize=0;swimlaneHead=0;swimlaneBody=0;top=0;left=0;bottom=0;right=0;dropTarget=0;collapsible=0;recursiveResize=0;expand=0;fontStyle=0;fillColor=none;strokeColor=inherit;" vertex="1" parent="_h1ouXhckzfPP8V2IBJ4-32">
          <mxGeometry width="220.1" height="40" as="geometry" />
        </mxCell>
        <mxCell id="_h1ouXhckzfPP8V2IBJ4-34" value="" style="connectable=0;recursiveResize=0;strokeColor=inherit;fillColor=none;align=center;whiteSpace=wrap;html=1;fontSize=26;fontStyle=1" vertex="1" parent="_h1ouXhckzfPP8V2IBJ4-33">
          <mxGeometry width="40" height="40" as="geometry">
            <mxRectangle width="40" height="40" as="alternateBounds" />
          </mxGeometry>
        </mxCell>
        <mxCell id="_h1ouXhckzfPP8V2IBJ4-35" value="1" style="connectable=0;recursiveResize=0;strokeColor=inherit;fillColor=none;align=center;whiteSpace=wrap;html=1;fontSize=26;fontStyle=1" vertex="1" parent="_h1ouXhckzfPP8V2IBJ4-33">
          <mxGeometry x="40" width="90" height="40" as="geometry">
            <mxRectangle width="90" height="40" as="alternateBounds" />
          </mxGeometry>
        </mxCell>
        <mxCell id="_h1ouXhckzfPP8V2IBJ4-36" value="2" style="connectable=0;recursiveResize=0;strokeColor=inherit;fillColor=none;align=center;whiteSpace=wrap;html=1;fontSize=26;fontStyle=1" vertex="1" parent="_h1ouXhckzfPP8V2IBJ4-33">
          <mxGeometry x="130" width="90" height="40" as="geometry">
            <mxRectangle width="90" height="40" as="alternateBounds" />
          </mxGeometry>
        </mxCell>
        <mxCell id="_h1ouXhckzfPP8V2IBJ4-37" style="shape=tableRow;horizontal=0;startSize=0;swimlaneHead=0;swimlaneBody=0;top=0;left=0;bottom=0;right=0;dropTarget=0;collapsible=0;recursiveResize=0;expand=0;fontStyle=0;fillColor=none;strokeColor=inherit;" vertex="1" parent="_h1ouXhckzfPP8V2IBJ4-32">
          <mxGeometry y="40" width="220.1" height="90" as="geometry" />
        </mxCell>
        <mxCell id="_h1ouXhckzfPP8V2IBJ4-38" value="1" style="connectable=0;recursiveResize=0;strokeColor=inherit;fillColor=none;align=center;whiteSpace=wrap;html=1;fontSize=26;fontStyle=1" vertex="1" parent="_h1ouXhckzfPP8V2IBJ4-37">
          <mxGeometry width="40" height="90" as="geometry">
            <mxRectangle width="40" height="90" as="alternateBounds" />
          </mxGeometry>
        </mxCell>
        <mxCell id="_h1ouXhckzfPP8V2IBJ4-39" value="19506" style="connectable=0;recursiveResize=0;strokeColor=inherit;fillColor=none;align=center;whiteSpace=wrap;html=1;fontSize=26;" vertex="1" parent="_h1ouXhckzfPP8V2IBJ4-37">
          <mxGeometry x="40" width="90" height="90" as="geometry">
            <mxRectangle width="90" height="90" as="alternateBounds" />
          </mxGeometry>
        </mxCell>
        <mxCell id="_h1ouXhckzfPP8V2IBJ4-40" value="239" style="connectable=0;recursiveResize=0;strokeColor=inherit;fillColor=none;align=center;whiteSpace=wrap;html=1;fontSize=26;" vertex="1" parent="_h1ouXhckzfPP8V2IBJ4-37">
          <mxGeometry x="130" width="90" height="90" as="geometry">
            <mxRectangle width="90" height="90" as="alternateBounds" />
          </mxGeometry>
        </mxCell>
        <mxCell id="_h1ouXhckzfPP8V2IBJ4-41" style="shape=tableRow;horizontal=0;startSize=0;swimlaneHead=0;swimlaneBody=0;top=0;left=0;bottom=0;right=0;dropTarget=0;collapsible=0;recursiveResize=0;expand=0;fontStyle=0;fillColor=none;strokeColor=inherit;" vertex="1" parent="_h1ouXhckzfPP8V2IBJ4-32">
          <mxGeometry y="130" width="220.1" height="90" as="geometry" />
        </mxCell>
        <mxCell id="_h1ouXhckzfPP8V2IBJ4-42" value="2" style="connectable=0;recursiveResize=0;strokeColor=inherit;fillColor=none;align=center;whiteSpace=wrap;html=1;fontSize=26;fontStyle=1" vertex="1" parent="_h1ouXhckzfPP8V2IBJ4-41">
          <mxGeometry width="40" height="90" as="geometry">
            <mxRectangle width="40" height="90" as="alternateBounds" />
          </mxGeometry>
        </mxCell>
        <mxCell id="_h1ouXhckzfPP8V2IBJ4-43" value="239" style="connectable=0;recursiveResize=0;strokeColor=inherit;fillColor=none;align=center;whiteSpace=wrap;html=1;fontSize=26;" vertex="1" parent="_h1ouXhckzfPP8V2IBJ4-41">
          <mxGeometry x="40" width="90" height="90" as="geometry">
            <mxRectangle width="90" height="90" as="alternateBounds" />
          </mxGeometry>
        </mxCell>
        <mxCell id="_h1ouXhckzfPP8V2IBJ4-44" value="19616" style="connectable=0;recursiveResize=0;strokeColor=inherit;fillColor=none;align=center;whiteSpace=wrap;html=1;fontSize=26;" vertex="1" parent="_h1ouXhckzfPP8V2IBJ4-41">
          <mxGeometry x="130" width="90" height="90" as="geometry">
            <mxRectangle width="90" height="90" as="alternateBounds" />
          </mxGeometry>
        </mxCell>
      </root>
    </mxGraphModel>
  </diagram>
</mxfile>
